<svg xmlns="http://www.w3.org/2000/svg" viewBox="0 0 852.69 1255.29"><title>Asset 1</title><g id="Layer_2" data-name="Layer 2"><g id="Layer_1-2" data-name="Layer 1"><g id="Layer_2-2" data-name="Layer 2"><g id="Layer_1-2-2" data-name="Layer 1-2"><path d="M852.69,785.79V0H0V785.79S-4.47,973.2,228.68,999.06c14.1,1.5,160.27-1.49,197.67,54.5,37.4-56,183.57-53,197.68-54.5C857.18,973.2,852.69,785.79,852.69,785.79ZM617,977.9c-13.25,1.5-152.8-1.49-188.49,51.93C393,976.41,253.47,979.4,240,977.9,17.76,953.33,21.82,774.67,21.82,774.67V25.22H835.17V774.67S839.44,953.33,617,977.9Z" style="fill:#fff"/><path d="M178.67,852.25s-39.53-10-42.74-30.78a51.2,51.2,0,0,1,5.56-28.21s11.54-2.35,12.61-6.83c.85-4.49.43-10.69-6-13-6.19-2.35-8.76-1.28-12.82,3.63-3.84,4.92-1.71,8.34-1.71,8.34s7.27,9.4-5.34,18.16c0,0-7.91-22.44-7.91-37.4,0,0,10.26-30.77,24.15-53.42,5.77-9.4,18.38-27.78,18.38-27.78,0,40.81-28.21,77.14-28.21,77.14C174,739,177,684.92,177,676.58c0-8.12-4.7-30.13-4.7-30.13s-26.92,36.12-35.05,52.36c-8.12,16-11.32,24.57-17.31,42.1,0,0-1.06-33.13,0-37,1.93-6.41,16.46-23.08,16.46-23.08s6.62.85,9.19-4.06c2.56-4.71,3.2-12.19-3-14.54s-13,4.28-13,4.28c-2.35,5.55.64,12,.64,12L120,687.69l.43-33.55s10.26-27.78,24.15-50.43c5.77-9.4,18.38-28,18.38-28,0,40.82-28.21,77.15-28.21,77.15,39.28-22.86,40.1-78.64,40.1-86.76s-2.57-28.64-2.57-28.64-28.42,34-36.54,50-9.83,23.93-15.81,41.24c0,0-1.07-29.92,0-33.76,1.92-6.41,16.45-23.08,16.45-23.08s6.63.64,9.19-4.06,3.2-12.19-3-14.54-13,4.28-13,4.28c-2.35,5.55.64,12,.64,12l-10.28,9.16.42-34.4s10.26-27.78,24.15-50.44c5.77-9.4,18.38-28,18.38-28,0,40.82-28.21,77.15-28.21,77.15C174,520.15,177,465.87,177,457.75s-4.7-30.13-4.7-30.13-26.92,32.48-35.05,48.51S125.94,501.56,120,518.87c0,0-1.06-29.92,0-33.77,1.93-6.41,16.46-23.08,16.46-23.08s6.62.64,9.19-4.06,3.2-12.18-3-14.53-13,4.27-13,4.27c-2.35,5.56.64,12,.64,12L120,468.89l.43-29.28s8.12-28.63,22-51.07l13.89-22.65c0,40.6-23.07,68.81-23.07,68.81C172.48,411.8,171,369.49,171,361.37c0-8.34-1.07-35.48-1.07-35.48s-27.35,28.85-35.69,44.88c-8.12,16-8.33,26.07-14.31,43.6,0,0-1.07-29.28,0-33.13,1.92-6.41,10.47-20.94,10.47-20.94s7.26,2.56,10-1.71c3.64-5.56,4.7-9.83-2.35-13.89-5.77-3.42-12.18,2.14-12.18,2.14a12.68,12.68,0,0,0,.43,10.47l-6.4,7.69.42-23.93s5.13-28.64,19-51.29c5.77-9.41,16.89-27.14,16.89-27.14,0,40.81-21.59,66-21.59,66,34.2-24.58,40.18-68.38,40.18-76.51s-2.56-32.69-2.56-32.69S141,252.35,132.71,268.38c-8.12,16-10.69,29.91-12.82,47.22,0,0-1.07-32.91,0-36.75,1.92-6.41,8.12-18,8.12-18s5.34,1.49,7.91-3.21.21-10-4.49-12.39c-6-3.21-8.55,1.28-8.55,1.28-2.35,5.55.43,12,.43,12l-4.92,4.06L118,238.49s7.9-26.93,21.79-49.58c5.77-9.4,20.52-28,20.52-28,0,40.82-22.23,64.54-22.23,64.54,39.32-22.86,36.33-59.41,36.33-67.53,0-21.8-2.56-28.21-2.56-28.21s-33.55,30.13-41.67,46.38c-8.12,16-11.12,32.27-16.89,49.79l-.42-148.74c15.62,27,14.47,52.84,13,83.35,0,0,7.27-22.87,9.19-42.1,1.92-19.45-9.62-38.26-12.61-42.74S112,48.51,112,48.51s-1.07,10.68-10.26,27.78c-9.4,17.09-10.9,33.12-11.11,43.81C90,136.55,106,175.87,107.3,178c1.71,3.63.64,51.93.64,51.93-17.1-14.1-24.79-21.37-30.34-30.13C68,185.05,64.13,157.7,64.13,157.7s10,11.33,16,17.31,20.3,30.13,20.3,30.13c3-32.7-47.44-74.58-47.44-74.58s-4,55.57,13.49,82.28c11.76,18.17,43,31.21,43,31.21v20.72l-7.48-4.7s2.35-6.84-.64-12c0,0-7.48-6-13.47-3-5.77,3-4.27,10.48-1.49,15,3,4.49,9.83,3,9.83,3s10,9,12.61,15.18c1.49,3.63.64,56.41.64,56.41-17.1-14.1-22.66-23.29-28.21-32-9.62-14.75-15.6-39.32-15.6-39.32s12,9.61,18,15.6c5.77,6,16.88,27.56,16.88,27.56C103.45,273.75,53,227,53,227s-3,54.92,13.46,82.49c13.47,22.65,43,35.26,43,35.26V365l-11.11-8.12s2.13-6.63-.65-12c0,0-7.48-5.77-13.46-3-6,3-4.49,10.47-1.5,15s9.62,3,9.62,3,13.89,14.53,16.46,20.73c1.49,3.63.64,56.41.64,56.41-17.1-14.1-22.66-23.29-28.21-31.84-9.62-15-15.6-39.32-15.6-39.32s12,9.62,18,15.39c5.77,6,16.88,27.56,16.88,27.56,3-32.69-47.44-79.49-47.44-79.49s-3,54.92,13.46,82.49c13.47,22.86,43.38,35.47,43.38,35.47l-.42,21.58-11.11-8.12s2.13-6.62-.65-12c0,0-7.48-5.77-13.46-2.78-6,2.78-4.49,10.26-1.5,14.74s9.62,3,9.62,3,13.89,14.53,16.46,20.72c1.49,3.64.64,56.42.64,56.42-17.1-14.1-22.66-23.29-28.21-31.84-9.62-15-15.6-39.32-15.6-39.32s12,9.61,18,15.6c5.77,5.77,16.88,27.35,16.88,27.35C103.45,480,53,433.17,53,433.17s-3,54.92,13.46,82.48c13.47,22.87,43,35.69,43,35.69V578.7l-11.11-8.12s2.13-6.63-.65-12c0,0-7.48-5.77-13.46-3-6,3-4.49,10.47-1.5,15s9.62,3,9.62,3,13.89,14.53,16.46,20.73c1.49,3.63.64,56.41.64,56.41-17.1-14.1-22.66-23.29-28.21-31.84-9.62-15-15.6-39.32-15.6-39.32s12,9.62,18,15.39c5.77,6,16.88,27.57,16.88,27.57C103.45,589.81,53,543,53,543s-3,54.92,13.46,82.49c13.47,22.86,43,34.83,43,34.83v27.35l-11.11-8.12s2.13-6.62-.65-11.75c0,0-7.48-6-13.46-3s-4.49,10.26-1.5,14.74,9.62,3,9.62,3,13.89,14.74,16.46,20.72c1.49,3.85.64,56.42.64,56.42-17.1-14.1-22.66-23.29-28.21-31.84-9.62-14.75-15.6-39.32-15.6-39.32s12,9.62,18,15.6c5.77,6,16.88,27.35,16.88,27.35C103.45,699,53,652.21,53,652.21s-3,54.92,13.46,82.27c13.47,22.87,44.45,35.69,44.45,35.69,1.5,14.75,4.49,34.19,4.49,34.19-13.46-7.47-10.47-13.46-10.47-13.46a11.78,11.78,0,0,0-3-10.47c-4.28-4.27-8.77-7.27-14.75-4.27s-3,8.76-1.49,13.25,9,7.47,9,7.47c4.49,6,25.86,22.23,25.86,22.23,18.59,52.78,67.53,65.39,67.53,65.39Zm-6.19,9.82c-.65,4.49-1.5,5.35-6,2.36-4.27-3-13.89-9-19.87-20.09,0,0,17.09,12.6,21.37,13.46C172.48,858.44,173.33,857.8,172.48,862.07Z" style="fill:#fff"/><path d="M764.22,698.81c-8.33,16-11.54,24.57-17.31,42.1,0,0-1.07-33.13,0-37,1.71-6.41,16.24-23.08,16.24-23.08s6.84.85,9.4-4.06c2.36-4.71,3.21-12.19-3-14.54s-13,4.28-13,4.28c-2.35,5.55.42,12,.42,12l-10.25,9.18.42-33.55s10.48-27.78,24.37-50.43c5.77-9.4,18.38-28,18.38-28,0,40.82-28.21,77.15-28.21,77.15,39.32-22.87,40-78.64,40-86.76S799,537.46,799,537.46s-28.2,34-36.32,50c-8.34,16-10.05,23.93-15.82,41.24,0,0-1.07-29.92,0-33.76,1.71-6.41,16.24-23.08,16.24-23.08s6.84.64,9.41-4.06c2.35-4.71,3.2-12.19-3-14.54s-13,4.28-13,4.28c-2.35,5.55.43,12,.43,12l-10.26,9.18.43-34.4s10.47-27.78,24.36-50.44c5.77-9.4,18.38-28,18.38-28,0,40.82-28.21,77.15-28.21,77.15C801,520.15,804,465.87,804,457.75s-5-30.13-5-30.13-26.71,32.48-34.83,48.51c-8.33,16-11.54,25.43-17.31,42.74,0,0-1.07-29.92,0-33.77,1.71-6.41,16.24-23.08,16.24-23.08s6.84.64,9.4-4.06c2.36-4.7,3.21-12.18-3-14.53s-13,4.27-13,4.27c-2.35,5.56.42,12,.42,12l-10.25,9.19.42-29.28s8.34-28.63,22-51.07c5.77-9.4,14.1-22.65,14.1-22.65,0,40.6-23.08,68.81-23.08,68.81C799.48,411.8,798,369.49,798,361.37c0-8.34-1.07-35.48-1.07-35.48s-27.57,28.85-35.69,44.88c-8.33,16-8.55,26.07-14.32,43.6,0,0-1.07-29.28,0-33.13,1.71-6.41,10.47-20.94,10.47-20.94s7.06,2.56,9.83-1.71c3.64-5.56,4.71-9.83-2.13-13.89-5.77-3.42-12.18,2.14-12.18,2.14a11.8,11.8,0,0,0,.42,10.47L746.7,365l.43-23.93s5.13-28.64,19.23-51.29c5.56-9.41,16.88-27.14,16.88-27.14,0,40.81-21.58,66-21.58,66,34.19-24.58,40-68.38,40-76.51s-2.56-32.69-2.56-32.69-31.2,32.91-39.32,48.94c-8.34,16-10.69,29.91-12.83,47.22,0,0-1.06-32.91,0-36.75,1.71-6.41,8.12-18,8.12-18s5.35,1.49,7.91-3.21c2.35-4.7.22-10-4.49-12.39-6-3.21-8.54,1.28-8.54,1.28-2.57,5.55.42,12,.42,12l-5.13,4.06L745,238.49s7.69-26.93,21.58-49.58c5.77-9.4,20.73-28,20.73-28,0,40.82-22.44,64.54-22.44,64.54,39.33-22.86,36.55-59.41,36.55-67.53,0-21.8-2.57-28.21-2.57-28.21s-33.55,30.13-41.67,46.38c-8.33,16-11.11,32.27-17.1,49.79l-.42-148.74c15.74,26.87,14.64,52.91,13,83.35,0,0,7.48-22.87,9.41-42.1,1.71-19.45-9.83-38.26-12.61-42.74-3-4.49-10.47-27.14-10.47-27.14s-1.07,10.68-10.48,27.78c-9.18,17.09-10.68,33.12-11.11,43.81-.4,16.45,15.6,55.77,16.68,57.9,1.92,3.63.86,51.93.86,51.93-17.1-14.1-24.79-21.37-30.56-30.13-9.62-14.75-13.25-42.1-13.25-42.1s10,11.33,16,17.31c5.77,6,20.3,30.13,20.3,30.13,3-32.7-47.44-74.58-47.44-74.58s-4.06,55.56,13.25,82.27C705.25,231,736.42,244,736.42,244v20.72l-7.48-4.7s2.14-6.84-.64-12c0,0-7.48-6-13.46-3s-4.49,10.48-1.5,15,9.62,3,9.62,3,10.26,9,12.61,15.18c1.49,3.63.85,56.41.85,56.41-17.1-14.1-22.65-23.29-28.21-32-9.62-14.75-15.6-39.32-15.6-39.32s11.75,9.61,17.74,15.6,17.09,27.56,17.09,27.56C730.46,273.75,680,227,680,227s-3,54.92,13.25,82.49c13.68,22.65,43.17,35.26,43.17,35.26V365l-11.11-8.12s2.13-6.63-.86-12c0,0-7.48-5.77-13.25-3-6,3-4.48,10.47-1.49,15s9.61,3,9.61,3,13.9,14.53,16.25,20.73c1.49,3.63.85,56.41.85,56.41-17.1-14.1-22.65-23.29-28.21-31.84-9.62-15-15.6-39.32-15.6-39.32s11.75,9.62,17.74,15.39c6,6,17.09,27.56,17.09,27.56,3-32.69-47.44-79.49-47.44-79.49s-3,54.92,13.25,82.49c13.68,22.86,43.6,35.47,43.6,35.47l-.43,21.58-11.11-8.12s2.13-6.62-.86-12c0,0-7.48-5.77-13.25-2.78-6,2.78-4.48,10.26-1.49,14.74s9.61,3,9.61,3,13.9,14.53,16.25,20.72c1.49,3.64.85,56.42.85,56.42-17.1-14.1-22.65-23.29-28.21-31.84-9.62-15-15.6-39.32-15.6-39.32s11.75,9.61,17.74,15.6c6,5.77,17.09,27.35,17.09,27.35,3-32.69-47.44-79.49-47.44-79.49s-3,54.92,13.25,82.48c13.68,22.87,43.17,35.69,43.17,35.69V578.7l-11.11-8.12s2.13-6.63-.86-12c0,0-7.48-5.77-13.25-3-6,3-4.48,10.47-1.49,15s9.61,3,9.61,3,13.9,14.53,16.25,20.73c1.49,3.63.85,56.41.85,56.41-17.1-14.1-22.65-23.29-28.21-31.84-9.62-15-15.6-39.32-15.6-39.32s11.75,9.62,17.74,15.39c6,6,17.09,27.57,17.09,27.57,3-32.7-47.44-79.5-47.44-79.5s-3,54.92,13.25,82.49c13.68,22.86,43.17,34.83,43.17,34.83v27.35l-11.11-8.12s2.13-6.62-.86-11.75c0,0-7.48-6-13.25-3-6,3-4.48,10.26-1.49,14.74s9.61,3,9.61,3,13.9,14.74,16.25,20.72c1.49,3.85.85,56.42.85,56.42-17.1-14.1-22.65-23.29-28.21-31.84-9.62-14.75-15.6-39.32-15.6-39.32s11.75,9.62,17.74,15.6,17.09,27.35,17.09,27.35c3-32.48-47.44-79.28-47.44-79.28s-3,54.92,13.25,82.27c13.68,22.87,42.59,36.21,42.59,36.21s-.93,20.87-7.11,32.82c-12.4-8.76-5.13-18.16-5.13-18.16s1.92-3.42-1.93-8.34c-4.06-4.91-6.62-6-12.82-3.63s-6.84,8.55-5.77,13c.86,4.49,12.4,6.84,12.4,6.84A49.11,49.11,0,0,1,721,821.46c-3.2,20.73-42.52,30.77-42.52,30.77l-9.58,32.27s48.94-12.6,67.53-65.39c0,0,21.58-16.24,26.07-22.23,0,0,7.27-3,8.76-7.47s4.49-10.26-1.49-13.25c-5.77-3-10.26,0-14.75,4.27a11.73,11.73,0,0,0-3,10.47s3,6-10.47,13.46c4.14-21.51,5.56-38.25,5.56-38.25s10.47-30.77,24.36-53.42c5.77-9.41,18.38-27.79,18.38-27.79,0,40.82-28.21,77.15-28.21,77.15C801,739,804,684.9,804,676.57c0-8.12-4.91-30.13-4.91-30.13S772.34,682.57,764.22,698.81ZM690.49,864.43c-4.49,3-5.13,2.13-6-2.36-.65-4.27,0-3.63,4.48-4.27,4.49-.85,21.59-13.46,21.59-13.46C704.59,855.45,695,861.43,690.49,864.43Z" style="fill:#fff"/><path d="M483.41,852.24H434.9c-1.92,0-9.4-2.35-12.39-6.41l-8.12,27.57s.42,7.69,9.4,7.69h40v57.49s22.65-9,23.72-9.62c1.07-.85,1.93-1.07,1.93-6V859.51S490.46,852.24,483.41,852.24Zm-1.49,16.25v47.65c0,3.85-.64,4.28-1.5,4.7-.85.65-7.05,1.93-7.05,1.93V872.33H437a6.81,6.81,0,0,1-7.27-6.41l1.71-7.48c2.35,3.42,8.34,5.13,9.83,5.13h35.48C482.34,863.57,481.92,868.49,481.92,868.49Z" style="fill:#fff"/><path d="M662.28,848c-4.49,0-15,1.5-19.23.85a55.92,55.92,0,0,1-10.47-3.63l-12,33.34c3,3,17.95,1.49,17.95,1.49l-3,24.37,24.57-6.63c-2.35-8.12,5.13-31.2,7.27-38.46C669.76,851.82,666.77,848,662.28,848Zm-5.34,20.94c-1.5,5.13-3.63,15.18-3.63,21.37l-6,1.71,2.14-18.16a19.46,19.46,0,0,1-12.61,0l4.28-11.11a28.85,28.85,0,0,1,6.62.43,34.86,34.86,0,0,0,6.62.21c3.22,0,4.29.18,2.58,5.52Z" style="fill:#fff"/><path d="M391.52,905.88c-3-1.49,0-6.62,0-6.62s7.05-4.49,9.19-6.63c2.14-2.35,4.06-4.06,4.06-9.61V857c0-3.64.85-5.13-3.63-6-4.49-.64-15-.64-19.45-.64a32.11,32.11,0,0,1-8.76-1.49c-.86,5.12-9.62,27.35-9.62,27.35,2.14,1.5,6.63,1.5,10.26,2.35,3.85.64,1.5.64,3,3,1.5,2.14,0,13.25,0,13.25-14.1-6-51.07-39.32-54.07-41.46-3-2.35-6-1.49-6.83.65-.65,2.35-11.76,18-11.76,18s4.49,20.73,5.13,29.49c.86,9-4.49,36.54-4.49,36.54h37.61l9.62-24.15H331.26V897.12c0-3,1.49-3,1.49-3s53.43,40,57.27,42.31c3.64,2.14,4.28.65,4.28.65L405.62,914C401.78,912.72,394.3,907.38,391.52,905.88Zm-9-46.16a25.89,25.89,0,0,0,6.83,1.07c3.42,0,2.36-.21,5.77-.21,3.64,0,3,4.49,3,7.27v5.34c0,4.49-.43,9.83-1.71,11.32-1.71,1.93-7.06,5.35-7.06,5.35s1.93-14.11.86-15.82c-1.28-1.71.43-1.71-2.35-2.35-3-.64-7.48.86-9.19-.21,0,0,3.23-7.7,3.88-11.76Zm9.18,67.54a27.08,27.08,0,0,0-4.48-3.42c-3-1.71-61.55-42.53-61.55-42.53s-.43,4.27-.43,6.62.64,32.06.64,32.06h16.67l-5.13,8.33H317.37s2.56-19.23,2.13-26.07c-.64-7.69-2.35-27.56-2.35-27.56s2.78-3.21,3.42-4.92c.64-1.92,3-2.56,5.13-.64,4.91,4.49,40.82,38.68,71.16,48.72Z" style="fill:#fff"/><path d="M593.68,852.24l-7.48,25.44,8.12,1.49s1.07,11.11-.64,15.6c-1.92,4.49-3.84,7.91-7,9.4-3.42,1.5-20.73,4.28-20.73,4.28s15.17-53.43,15.39-56.21h-27l-9,23.94,8.54,2.35s-12.18,29.71-14.74,32.27c0,0-9-11.54-3.85-29.06,2.14-6.84,5.77-21.8,7.91-25.43,1.49-2.57-2.78-4.06-5.56-4.06-3,0-10.9,1.7-24.57-4.28L502.4,872.55s2.56,4.91,10,6.41c7.27,1.49,1.29,7,0,8.12-1.49,1.07-3,4.49-3,8.12s-.85,43.38-.85,43.38,74.79-10,80.14-11.11c3.84-.64,3.84-1.5,6-3.42,2.14-1.71,14.1-16.24,15.17-17.74s1.07-1.92,1.5-5.56,3-48.51,3-48.51Zm13.47,41.68c-.22,3-1.5,8.55-2.36,9.61-.85,1.29-12.18,11.76-13.89,13.25-1.92,1.5-1.92,1.93-4.91,2.57-4.28.85-66.68,9-66.68,9s.64-31.84.64-34.83.86-7.48,1.93-8.33c1.28-.86,7.91-9.62,3.84-10.69a35.9,35.9,0,0,1-8.76-2.78l5.13-11.11c5.56.43,6.84,1.92,9.19,1.92,2.56,0,5.77,1.07,4.49,3.21-1.5,3-4.49,15-6.2,20.51-1.49,5.13-1.92,27.79-.21,31.63,1.07,2.35,17.95-.42,17.95-.42,2.14-1.93,18.59-44.24,18.59-44.24h-10l4.48-8.76h13.43c-.22,2.35-16.46,52.78-16.46,52.78s29.07-3.85,31.84-5.13c2.57-1.07,10.48-8.55,11.76-12.18,1.49-3.42,2.56-23.51,2.56-23.51l-7.26-.42,3.41-12,10.05.21s-2.35,26.72-2.56,29.71Z" style="fill:#fff"/><path d="M452,514.59l-.36-.24-.61-.47h0l.06.08.18.27h0Z" style="fill:#fff"/><path d="M450.19,513.17c.28.25.56.48.84.71A2.3,2.3,0,0,0,450.19,513.17Z" style="fill:#fff"/><path d="M646,135.06c-10.26-3.63-21.58-.85-27.57,2.14S608,153.86,614,159.85s2.77,21.37,4.06,27.35c1.28,5.35-1.07,14.53-1.07,14.53-2.14,3,1.28,14.11-.64,16.46-3.85,4.27-1.93,11.11-1.93,11.11a57.2,57.2,0,0,0-1.92,7.27,109.37,109.37,0,0,0-.64,12c.64,6.62-1.5,14.1-1.5,14.1s-3.2,12.61-6.62,20.73c-2.35,5.13,1.07,7.48-4.92,15.6,0,0-2.56,10.47-4.06,15.17,0,0-8.12,7.91-12.61,14.53,0,0-7.48,10.05-10.68,15.6,0,0-2.78,3.64-7.91,12.19,0,0-16.24,6.41-18.81,13-1.28,3-15.38,7.48-25.21,16-1.5,1.07-16.46,7.05-19,7.27,0,0-12.61,1.06-16.24,4.91,0,0-17.95,3.63-20.95,5.13,0,0-4.62,1.27-8.91,2.16-.39-6.4-1.34-13.91-1.34-13.91.7-1,.94-3.66,1-7.09h.74c6,.22,24.57-7.47,24.57-7.47,18.38-1.93,27.36-11.12,27.36-11.12,10-1.49,10.47-6,10.47-6,4.06-.64,13.68-5.13,13.68-5.13,5.55-.85,10.89-11.75,10.89-11.75,1.5-1.28,7.27-7.27,7.27-7.27,7.91-3.63,14.53-17.73,16.45-20.3,4.92-6.84,6.42-12,7.7-13.89,3.42-4.27,9.61-25.22,11.11-31s3.42-8.12,5.34-21.58c2.14-15.6,3.21-35.26,3.21-35.26a88.23,88.23,0,0,1,.85-16.24,58.92,58.92,0,0,1-1.92-13c0-6,1.49-22.22,7.48-31.2s-3.85-19.45-15-20.09c-13.25-.64-18.38,4.49-24.36,7.48s-13.47,16.67-7.48,22.65,5.77,18.38,7,24.37c1.07,5.34,1.92,16,1.92,16-2.35,3-2.35,9-2.35,12s-1.71,8.76-1.71,8.76-1.28,6-.42,10.47c.85,5.35,1.49,11.12,1.49,11.12-6,1.49-3,17.09-3,17.09s-9,13.25-11.11,21.59c-1.5,5.55-5.13,9.61-9.41,17.73,0,0-5.12,1.93-6.19,3.42,0,0-13.47,7.06-17.74,17.31,0,0-12,4.92-15.39,10.47,0,0-11.75,2.14-15.81,6.2,0,0-19,9.83-22,10.9a13.22,13.22,0,0,1-3.51.78A199.87,199.87,0,0,0,453,325.82c22.3-3.37,41.18-13.06,46.85-18.73,5.77-6,2.78-7.48,7.26-8.76,4.49-1.49,9.62-15,14.11-19.44,4.06-4.07,5.34-11.76,9.62-21.37a77.08,77.08,0,0,0,6.83-29.07c5.77-7.48-1.49-19.23-1.49-19.23s1.49-13.46,1.49-19.23c0-6,.65-22.44,2.78-32.06,2.56-10.26,3-16.24-7.27-19.87-10-3.64-26.07-3.85-32.05-.86-5.77,3-19.23,17.1-13.25,23.08,6,5.77,13.25,19.24,14.75,25.22s3,22.87,3,22.87c-2.14,3,.85,4.48.85,7.47V221s-2.35,19.45-6.62,22.44c-4.49,2.78-3,10.26-3,10.26-6,1.49-9,15.6-9,15.6s-9.4,10-13.46,12.61c-8.77,6-11.76,5.34-20.73,6.62-1.38.23-3.39.66-5.72,1.15-.41-6.67-.27-11.41-.27-11.41a98.38,98.38,0,0,0,.86-12c0-6-3-6.63-3-6.63l3-6.62s3-1.5,3-4.49-3-5.13-3-5.13c1.49-2.35,0-14.1,0-18.59a53.62,53.62,0,0,0-1.5-10.47c1.5-6,.64-17.1-.64-20.73-1.5-3.63-3-12-.85-16.24,2.13-4.49,10.47-18,13.46-22.44,2.78-4.28,5.77-13.25-16.46-20.73s-32.69,2.35-40,6c-7.48,3.64-4.49,14.75-4.49,19.24s14.11,14.95,14.11,19.44c0,4.28-1.5,8.12-1.5,12.61,0,4.28-.85,8.12.64,10.26,0,0-5.13,3-5.13,5.13,0,2.35,3,4.49,4.49,7.48s-.85,3-.85,3-4.28,5.13-3.64,8.12,1.5,8.12,4.49,9c3,.64-2.35,3.63,0,6.62a11.43,11.43,0,0,0-3,7.48c0,4.49,5.13,9.62,5.13,9.62s-4.49,1.49-3.63,4.48c0,0-2.36,5.13-2.36,9,0,2.88.54,9.51,1.09,18.41h-.23c-9-1.28-20.73-3.85-26.71-12.61-5.13-7.27-9.62-8.76-9.62-8.76s-3-14.11-9-15.6c0,0,1.5-7.48-3-10.47s-7.26-18.6-7.26-18.6,2.13-3,2.13-5.77c0-3,.65-3.84-1.49-6.83,0,0,0-19.88,1.49-25.86s9-19.45,14.75-25.22c6-6,4.49-16.45-1.5-19.45-5.77-2.77-33.55-6.41-43.59-2.77-10.47,3.63-18,11.11-12,19.87,6,9,9.62,23.08,9.62,29.06,0,5.77,1.49,19.24,1.49,19.24s-4.49,10.47,1.5,17.73c0,0,1.49,18.81,8.12,33.56,4.49,9.61,3.42,18.16,7.48,22.22,4.49,4.49,9.61,15.6,14.1,17.1s1.5,2.78,7.48,8.76c5.69,5.9,21.75,19.06,44.92,20.67-.16,2.35-.16,4,.17,4.55,1.5,2.35,3,5.34,3,7.48,0,1.45-2.06,5.35-3.12,10.71a45.88,45.88,0,0,1-7.56-2.59c-4.92-2.14-19.66-9.19-19.66-9.19-4.06-4.06-16-5.56-16-5.56-3.2-5.55-14.32-9.61-14.32-9.61a61.12,61.12,0,0,0-9-10.9c-1.07-1.5-10.05-10.69-10.05-10.69-6-8.12-10.68-13.46-13-18.59-3.42-8.12-11.11-17.74-11.11-17.74s1.49-18.59-4.49-20.09a16.35,16.35,0,0,1-1.5-9.61c.86-4.49-.21-10.47-.21-10.47s-1.92-5.77-1.92-8.77.85-3.84-1.5-6.83c0,0,0-15.82,1.07-21.16,1.28-6-3.21-22.87,2.56-28.85,6-6,3-18.17-2.78-21.16-6-3-19.66-5.77-29.7-2.13-10.47,3.63-18,11.11-12,19.87,6,9,9.62,23.08,9.62,29.06s.43,15.82.43,15.82a85.36,85.36,0,0,1,.64,16.45s1.92,16.67,4.27,32.27c1.92,13.46,3.63,15.82,5.13,21.59s7.69,19.23,11.11,23.72c1.5,1.92,3,6.83,7.69,13.67,1.93,2.57,9.41,21.16,17.1,24.79,0,0,7.05,4.92,8.55,6,0,0,6.41,11.54,12,12.18,0,0,8.76,6.84,13,7.48,0,0,4.06,6.62,14.11,8.12,0,0,4.27,6.84,19.23,8.12,0,0,15.6,7.05,21.37,6.84a74.13,74.13,0,0,0,8.66,1.44,13.89,13.89,0,0,0,1.38,4.75s-1.79,11.34-2.09,18.33c-5.34-.74-14.15-2.73-14.15-2.73-3-1.49-20.73-5.12-20.73-5.12-3.84-3.85-13.46-6.42-13.46-6.42-2.56-.21-15.17-6.83-16.67-8.12-10-8.54-24.79-14.53-25.86-17.31-2.77-6.84-14.53-10-14.53-10-5.13-8.55-15.17-16.67-15.17-16.67A61.55,61.55,0,0,0,277.7,328c-4.36-6.76-9.49-16-9.49-16-1.07-1.5-3.2-15.17-3.2-15.17-6-8.34-4.28-9.83-6.42-15-3.41-8.12-9-20.73-9-20.73a57.11,57.11,0,0,1-.64-15s-3.64-5.13-4.49-9.61c-.64-4.28.43-10.26.43-10.26s2.56-3.85-1.07-8.12c-1.92-2.35-.86-6-3-9,0,0-3-16.67-1.93-22,1.29-6-3.42-22.87,2.57-28.85s3-18.17-3-21.16c-5.77-3-17.31-3.63-27.36,0-10.47,3.64-13.46,13.47-7.48,22.23,6,9,3,18.59,3,24.57s-.42,13.68-.42,13.68.42,11.11,0,21.59c0,0,1.06,12.18,3.42,27.78,1.92,13.46,1.49,12.18,3,17.73,1.49,6,1.07,21.59,4.49,26.08,1.28,1.92,2.77,6.83,7.69,13.67,1.92,2.57,4.91,19.66,13.46,26.29,0,0,4.06,15.6,13.68,23.08,0,0,6.62,11.11,9.61,10.68,0,0,6.63,12.61,10.69,13.47,0,0,3.42,12.6,13.46,14.1,0,0,6.2,10.68,16.24,12.61,0,0,8.55,11.54,19.24,11.75,0,0-3.21,8.55,15.6,8.55l1.92.85s6,4.49,11.11,4.49c0,0,17.74,7.27,22.23,6.63,0,0,7.52,1,17.95,2v20.19s9.62,2.14,9.62,7.48c0,5.13,0,7.27,3.63,8.12,0,0,3,2.14.85,7.48a12.69,12.69,0,0,0-2.35,7.26s-7.48,3-7.48,13.47h-5.13v15.6h9.62a8,8,0,0,1,.86,3.63c0,2.35,2.13,11.11.64,13.47-1.5,2.13-4.49,5.12-6,7.26-1.28,2.35-18.38,9.19-21.37,43.17-.85,8.12-11.11,10.26-20.73,13.25h154.3c-11.11-3-15.6-5.13-16.46-13.25-3-34-19.87-40.82-21.37-43.17-1.49-2.14-4.49-5.13-6-7.26-1.5-2.36.64-11.12.64-13.47a7.91,7.91,0,0,1,.85-3.63h9.62v-15.6H468.6c0-10.47-7.48-13.47-7.48-13.47A13.64,13.64,0,0,0,459,482.2c-2.36-5.34.64-7.48.64-7.48,3.63-.85,3.63-3,3.63-8.12,0-5.34,9.83-7.48,9.83-7.48V438.66c7.36-1.84,18-4.85,21.37-5.48a126.47,126.47,0,0,0,15.6-3.63c5.13-1.5,4.49-4.49,10-4.49,18.16,0,18.59-6.2,18.59-6.2,10.68-.43,15.6-12,15.6-12,12.82-2.35,22.22-14.1,22.22-14.1,8.34-1.28,12.61-13.25,12.61-13.25,4.06-.86,13-13.46,13-13.46,3,.42,7.26-10.69,7.26-10.69,9.83-7.48,13.9-27.57,13.9-27.57,8.54-6.62,7.69-15.38,9.61-18.16,5.34-7.48,5.77-17.31,7-18.81,3.21-4.49,5.13-20.73,6.63-26.71,1.49-5.56,1.07-4.49,3-18,2.14-15.39,3.42-27.78,3.42-27.78a173.94,173.94,0,0,0-2.35-20.73s-.24-7.65-.24-13.65-3-15.6,3-24.57C659.29,150.66,656.3,138.69,646,135.06ZM570.39,299.18c-1.92,3.42-5.13,7.7-8.12,4.28-2.14-2.35-5.77-2.14-6.84-4.28-1.28-2.78,3.21-2.56,4.06-5.55.85-4.06,4.7,1.92,7.48,2.13C568.68,295.76,571.24,297.47,570.39,299.18ZM582.14,247c-1.28,1.28-4.91,1.07-6.84,0-6.69-3.77.74-9.38,2.66-14.22-.18-2.65-.41-5.35.55-7.58.21-.64.21-1.92,1.07-2.13a3.43,3.43,0,0,1,4.06.85C589.41,231,588.13,241.06,582.14,247Zm-17.52-90.82c4.49-.86,8.76-.86,12.39-2.14,1.07-.43,3-.43,4.07-1.71,1.7-2.14,2.35-5.13,4.48-6.41a3.92,3.92,0,0,1,5.31,1.58,4,4,0,0,1,.25.56c1.07,2.56.64,6,0,8.76-.86,3.2-3.63,5.77-4.7,9-1.07,2.78-.22,5.77-.43,9-1.28,10.26.43,20.52,1.71,31.2.21,1.5-.43,5.13-3,6.41a29,29,0,0,1-13.25,2.78c-1.09,0-1.62-1-1.65-2.16a3.82,3.82,0,0,1,.15-1.26l-.85,2.14c-.43-2.78,2.78-2.57,3.63-4.49A20.28,20.28,0,0,0,574,204.3c1.5-6.62-.21-12.61-2.56-18.38,2.78.64,4.7-1.49,5.56-3.84,2.13-6.63,2.56-15.6-3.85-19.45-2.56-1.5-6.63-1.28-9.83-2.35-2.56-.64-1.32-3.64,1.29-4.06Zm-2.78,99.37c.22-.21.86,0,1.28,0l.86,3a7.12,7.12,0,0,1,.29-1,3.72,3.72,0,0,0,.35-2c6-.43,12.39.64,17.1,4.49-2.14,5.77-1.5,12.82-5.77,17.31-1.93,1.92-6.42.43-8.77-1.5-1.49-1.28-2.56-4.06-.64-4.91,4.28-2.14,7.27-5.13,5.13-9.41-1.92-3.84-7,1.07-9.62-1.92-.64-.61-1.49-2.74-.21-4ZM555.22,284c6.19-3.2,12.82,1.71,19,3.63.64.22,1.71,1.5,1.28,1.93-1.71,1.92-5.13,1.49-6.84.42-3.85-2.35-8.33-1.92-12-4.27C556.28,285.29,554.15,284.65,555.22,284Zm-14.75,32.7c1.5-.86,3.85-.22,5.77-1.71h-3.85a16.16,16.16,0,0,0,3.85-.47,8.13,8.13,0,0,0,3.21-1.45c1.71-1.5-1.71-6.2,1.92-6.63,4.49-.64,8.12,2.56,10.9,5.77a5.83,5.83,0,0,1,.43,6.84c-1.29,2.13-4.71,1.92-6.63,3.63-1.28,1.07-1.28,3.63-2.78,4.7-.85.43-2.77,1.5-3,.86-.64-1.5-2.35-1.5-3-2.78-1.07-1.5-4.06-2.14-5.13-3.42-1.48-1.91-4.68-3.41-1.69-5.33Zm-14.1,14.74c.85-1.07,2.56-1.49,4.06-1.92,2.13-.86-.22-2.57.21-4.28.64.22,1.07-.21,1.5-.64-.86.22-1.28-.42-.86-.64,3.85-1.49,5.56,3.64,7.27,6.63.43.85-.21,2.13.43,2.78,1.28,1.7,2.56,3.2,1.92,5.34a2.94,2.94,0,0,1-1.5,1.28c-4.27,1.28-6.41-3.63-9.61-5.77-.64-.21-1.5.21-2.14-.21-.86-.63-2.14-1.7-1.28-2.56Zm-11.54,16.67c1.28-1.71,4.7,1.71,7.48.86l-2.14-1.5c6-.43,1.92-4.92,3-8.76,3.42,3.63,7.48,8.33,5.56,13-1.29,3-5.77,3-8.77,4.07-4.28,1.74-7.7-4.67-5.13-7.66Zm.64-64.54c-1.28,1.71-4.28,1.71-5.34,0a3.32,3.32,0,0,1-1.07-2.13c-.22-1.07-1.5-2.35-1.28-2.57,3.2-2.78,7.26-3,10.25-6.2,2.57,4.33-.21,7.71-2.56,10.91Zm3.63-20.94c-1.71-.64-5.56-2.35-8.12-3.63-1.28-.43.21-2.78.85-3.21,2.78-2.56,6-1.92,7.7-5.13,1.07-2.35.64-5.55,2.78-6.19,2.35,1.71,6.83.64,6.83,3,.22,6-4.91,17.09-10,15.17Zm13-24.15c-.86-.21-1.29.64-1.5.64-4.49,0-8.12-3.2-12.61-3.84-.64-.22-3.2-.22-2.14-1.93,1.71-2.56,4.92-3,7.06-4.7,1.92-1.92,6.84,1.07,7.26,5.35,0,.21,1.29,1.06,1.71,1.7s.26,1.72.26,2.79Zm3.2-21.37c1.28,2.78-.43,9.4-1.92,9.19-6.84-2.56-16.24-4.06-13.89-7.05,4.49-.43,6.62,1.07,11.11.64,1.32-2.13,2.82-6.4,4.74-2.77Zm-32.91-54.49a3,3,0,0,1,.21-4.24,3,3,0,0,1,1.29-.68c9.4-1.92,18.16-.21,27.35-1.49,3.42-.43,2.35,2.13,2.35,2.56-.43,5.56-6.41,11.33-3.42,17.1,4.7,9.19,1.93,18.16,4.06,27.78a8.92,8.92,0,0,1-2.56,7.69c-4.7,4.49-12.18,2.14-17.1-1.49-2.35-1.72-.64-4.49,2.57-5.13,2.14-.43,4.27,0,5.77-.65,4.7-2.56,5.13-8.76,4.06-12.82-1.07-3.63-5.77-3.63-9.83-3.2,3.42-1.29,8.33-6,4.91-8.34-2.56-1.71-6.41-2.13-9-4.06-1.71-.85-1.5-4.06-3-6-1.85-2.75-5.27-4.24-7.62-7Zm-16.2,126.52c1.92-.64,4.7.43,6.2-.43,2.35-1.49,4.06-4.06,6-6,2.56-2.35,6.63.64,8.33,4.06.86,1.71,0,3.84-.85,4.91-1.5,1.71-2.35,4.28-4.27,5.35-1.93.85-3.64,1.92-5.35,2.78-5.34,2.13-9.83-3.64-11.11-8.55A2.13,2.13,0,0,1,486.19,289.14ZM323.78,160.49c-2.14-2.56-.43-6,2.13-6.84,6.63-2.56,14.11-2.13,21.37-.64a35.65,35.65,0,0,1,6.63,1.07c3.63,1.07,6.41,4.27,4.91,7.91-2.13,4.91-6.19,8.76-8.33,13.67-2.78,6.41.85,13.47-.21,20.52-1.07,6.62-5.56,11.11-12,12.61-2.14.42-4.49.42-5.56-1.5-4.27-7,5.77-7.91,8.34-12.61.64-1.28.85-3.42,0-4.06-3.64-3.84-5.35-8.12-7.91-12.18-2.35-4.06,1.07-8.76-1.71-12.39C329.55,163.48,325.7,162.84,323.78,160.49Zm3.63,59.41c-.43-.43-.43-1.92,0-1.92,3.16-1.33,6.72-1.24,10.26-1.13,1,0,2,.06,3,.06h-3c4.7.64,9.61-1.5,13.89,1.07.43.21.43,1.49,0,1.92-3.42,3.63-8.12.85-12.61,1.92-3.85.86-8.34,1.93-11.54-1.92Zm20.73,17.95c.21,3.21-6.41,3.63-9.83,4.28v-2.78C342.15,239.56,347.5,233.36,348.14,237.85Zm-8.55,17.52a1.26,1.26,0,0,0-2.26.81,3,3,0,0,1-.52.9v-2.35a1.49,1.49,0,0,0,.66.84c.16-1.77-1.45-3.44-.44-5.11.64-1.28,2.35-1.71,3.63-2.14,4.91-1.71,10.26-1.49,15.39-.64,1.92.43,4.48,1.92,2.77,3-6,3.84-13.67-1.29-19.23,4.69Zm12.82,20.73c-1.49.43-2.13,2.36-2.78,2.14-2.35-.85.22-2.56-.42-4.49,1.28.22,1.07-3,2.56-2.56-.43-5.77,4.7-10.05,9.4-8.33,1.71.42,3.85,2.77,3,5.12C362,272.68,357.54,275,352.41,276.1Zm7.91,11.12c-1.71-2.14.64-5.35,3.21-7.27,3-2.56,5.34-5.13,8.76-2.56.64.42.43,2.13.21,3.42-1.07,3.84-5.34,3.2-7.69,5.77C363.74,287.86,361,288.07,360.32,287.22Zm47,30.56c-10.25.42-20.3-3-29.49-7.7-7.05-3.42-15-9.19-10.47-16.88,1.93-3.42,4.28,2.35,6.2,5.13h0c8.12,12.18,22.65,11.32,34.41,17.52.43.22.43,1.93-.64,1.93ZM268.43,159c-1.28-2.35.21-4.48,1.49-6.19.22-.43,1.07-.22,1.5-.22L271,153c7,.43,10.26-1.07,17.1-1.28.85,0,4.49,1.92,5.13,1.92-1.5,4.28-1.71,10.26-2.14,14.53a83.79,83.79,0,0,0,.64,23.08c.86,6.2-.85,12.19-.64,18.38-.21,0-.64,0-.64.22-.86,4.7,0,0-2.57,4.27-.64,1.28-2.56,1.5-3.84,1.07-1.93-.86-3.64-3.21-3-5.35,2.56-9.18,4.27-8.54,3.2-18a14.14,14.14,0,0,0-5.34-9,6.61,6.61,0,0,1-2.35-2.57c-2.14-4.7,0-10.25-1.93-15C273.34,162.63,269.92,161.56,268.43,159Zm3.2,62.41c-.21-.43-.21-1.93,0-1.93,3.33-1.33,6.78-1.24,10.26-1.13,1,0,2,.07,3,.07h-3c4.7.64,9.62-1.5,14.11,1.06a2.12,2.12,0,0,1,0,1.93c-3.42,3.63-8.34.85-12.61,1.92-3.85.84-8.55,1.91-11.76-1.93Zm15,24.79c3.85-1.07,3.21-5.35,4.92-7.06,3.2-3.2,5.55,2.35,6.2,5.34,1.28,6-5.56,7.27-10.48,5.56-1.32-.43-2.6-3.21-.68-3.85Zm9.19,34.4c-.85.86-3.42.43-4.06-1.28-.43-1.28.64-2.78,1.28-2.57,2.1,0,4.45,1.7,2.74,3.84ZM293,293.2c-1.49.64-3-.64-4.27-1.5-.43-.21-.21-1.49,0-1.92a45,45,0,0,1,8.76-3.85c.64,0,1.28,0,1.5.22C301.55,289.78,296,292.13,293,293.2Zm4.49,13.89c-.85,0-3-1.5-1.92-3.21,1.07-1.49,3.2-1.49,4.91-2.35h0c.22-.21,0-1.28,0-1.28,1.93-.64,4.06,0,6,.64a9.67,9.67,0,0,1-9,6.2Zm165.41,62.62c3.63-1.29,7-1.71,10.47-3.21,22-8.55,25.22-13.68,29.92-15,1.49-.43,8.55,7.69,6.62,8.76-9.83,4.7-17.09,8.12-32.91,14.11-14.74,5.55-20.94,5.55-36.54,4.7-1.5,0-4.92-2.14-10.47-2.78-2.14-.21-6-1.28-4.49-2.14,11.5-6.79,25.21-.15,37.39-4.44Zm-15.6,35.68c-3.64,2.14-8.12,1.5-11.54.22-5.13-1.93-4.28-9.19-6.41-14.11-.43-1.49-2.35-2.13-3.64-2.78-3.63-1.71-8.33-1.71-10.9-5.55,1.07,0,1.93.64,3,.64,11.11,1.07,22.22,2.14,33.33,1.71-1.08,6.41,3.41,15.81-3.85,19.87Zm17.7-98.3c2.57-1.28,5.35-3.63,7.91-4.91,1.92-1.07,3.85-3.85,6.41-2.78,3.85,1.71,4.92,7.26,2.57,9-8.55,6.84-18.6,9.19-29.28,11.76-11.11,2.56-34.41,4.06-33.34-5.13a68.78,68.78,0,0,1,7.69.86c.89.13,1.76.23,2.56.31l1-.06A94.6,94.6,0,0,0,465,307.09Zm-28-56.63c3.2-3.21-1.92-5.34-.21-6.84,4.48-3.63,8.54,7.27,6.19,10.69-3.63,5.34-11.54,3-17.73,2.35-1.93-.22-3.42-3.64-1.5-4.28,4.06-1.49,8.76-.21,13.25-.64,0,0-.18-1.07,0-1.28Zm-6,23.72v3a12.27,12.27,0,0,0,.34-1.79c.49-4.18-.84-8.55,1.59-12.1,1.07-1.49,4.27-1.71,6.2-1.49,1.06.21,1.92,2.35,1.92,3.42.64,7.26,4.06,15.6-.43,20.72-4.49,5.35-15.17,3-22.86,1.07-2.57-.64-3.21-5.55-1.29-6.41A144.42,144.42,0,0,0,431,274.18ZM412.68,157.93c-.64-.22-2.35-1.71-1.5-3.21.21-.21.86,0,1.5,0l-.86,2.14a6.59,6.59,0,0,1,.85-.51c4.53-2.43,9.93-.46,14.75-2.27,1.93-.85,2.78-3.21,5.13-3.21-.43-1.92,1.92-2.13,2.14-3.63.64-2.56-.43-4.91-.64-7.48,9.4.22,17.95,10.47,15,19a20.54,20.54,0,0,1-5.77,8.12c-3.21,3-4.06,7.91-5.13,12.4-2.57,10.26,5.34,19.23,3.84,29.49-.64,3.63-1.28,7-4.27,9.61a5.84,5.84,0,0,1-6.41.43c-4.27-1.92-10.26,1.07-12.82-4.91,6-1.29,11.75-3.64,13.89-9.62,2.35-6,1.92-12.39.43-18.38-1.93-7.69,1.07-16-3.21-21.8C426.14,159.85,418.45,160.28,412.68,157.93Zm-2.14,169.89c.64-.64,2.35,0,3.42-.43,11.75-3.2,23.51,4.28,34.19-.64a41.93,41.93,0,0,1,.22,19.23c-1.29,5.56-9.83,9-14.54,5.35-6.62-5.13-7.26-15-14.74-19.66-1.71-1.07-4.28-1.07-6.41-1.5C411.61,330.17,409.26,329.1,410.54,327.82Zm-92.75,0c-.42-.21-2.13-.43-2.35-1.71-.43-3.21,1.5-6.84,5.13-6.62a5.17,5.17,0,0,0-1.49-.86c3-.64,6.19-2.78,8.12-1.92C329.76,318.2,321,329.32,317.79,327.82Zm21.8,9.19c-.21.43-1.49,1.28-1.71,1.71a10.29,10.29,0,0,1-5.56,6.84c-2.56,1.28-5.12-2.57-4.27-5.35a10.62,10.62,0,0,1,2.14-2.35c3.85-3,7.27-10.68,11.54-6.19.64.85-1.5,3.42-2.14,5.33Zm2.78,14.1c-.86-2.35,1.07-3.84,3.42-4.27h-2.14c4.06-3.63,7.27-10.9,13.25-10.47-3,6.41-4.27,13.46-8.55,19-2.34,3-5.13-1.48-6-4.26Zm66.46,23.73C382.55,372.48,374,368,358,360.52c-1.5-.64-4.06-2.78-3.63-4.7.42-1.5,3.42-2.36,5.13-1.5,4.91,3,19,13.25,43.8,16.88,1.93.21,8.13.43,8.34,1.71.17,1.09-2,1.93-2.82,1.93ZM215.22,209.64c8.12-4.91,6.19-15.81,9-23.72.12-.12.37-.1.67-.07.65-1.88,1.91-2.94,2.75-4.63,3-4.91.21-9.62-2.35-13.68-1.71-2.77-5.77-3-7.69-5.55-1.93-2.78,1.28-4.7,3-5.13,4.91-1.71,7.91-4.06,11.32-7.69,1.5-1.29,3,1.92,2.57,4.06h0v-.86c-1.5,5.13-3,10-2.14,15.6,3,15.82-.43,30.78-1.5,45.95C225.69,215,215.43,218,215.22,209.64ZM228,249.06c-2.21-2.18-8.2-.53-6.21-3.52,1.92-2.77,6.2-4.27,9.4-6.84,3.64-2.77,1.71-9,4.92-12.6.64-1.07,1.71.64,2.78.42-.22,6.2,1.92,13-.64,18.38-1.62,3-6.08,4.14-10.25,4.16h0a2.79,2.79,0,0,1,.42.54l-2.78-.64c.34,0,.7.06,1,.07H228Zm.42,39.22c1.49.43,1.28-2.56,3-1.49-.43-5.56,4.27-3.63,5.13-6.84.85-3-2.14-4.7-4.28-6-.42-.22.22-1.07.64-1.29,2.14-.42,4.49,0,5.77,1.5.65.85,2.14,1.5,1.71,3,2.78,0,2.57,3,3.21,4.49,2.35,5.56,0,13.68-7,14.53a5,5,0,0,0-.64-1.92c-3.23-2.13-8.15-1.06-7.5-6Zm6,27.36c.64-.64-.43-1.71.21-2.14,6.2-3.63,12.82-5.56,19.24-9.4,1.06-.64,3.2-1.28,4.27.43a3.28,3.28,0,0,1-.86,3.63c-5.53,6-15.15,12.61-22.84,7.48Zm15.81,26.71a10.08,10.08,0,0,1-4.48-3c-1.07-1.71.42-3,2.13-3.42,2.14-.64,4.49.21,6.63-.43,1.92-.85,2.77-2.13,4.7-3.2,1.71-.86,3.42-2.35,5.77-2.57,0,.86,1.28,1.29.64,2.14-4.47,5.13-8.53,12.62-15.37,10.48Zm5.56,10c-1.5-2.14,3-3.64,5.13-4.71,3.2-1.28,6.41-3.63,9.83-5.34.43,2.35-.64,4.7-1.71,6.63-1.5,2.77-4.06,3.84-6.63,5.77-2.75,2-5.32-.59-6.6-2.3ZM283.6,368c-2.35,1.28-2.35,5.55-5.34,6.83-2.78,1.07-3.21-2.13-4.92-3.63-.42-.21.22-1.28.43-2.14-2.78.86-4.49-.85-5.77-3-.85-1.71.43-2.78,1.5-3.42,1.92-.85,5.12.43,6.41-1.92.42-.85-.22-2.78.42-3.21,1.29-1.49,4.28-2.13,5.35-.21,1.49,2.78,4.06,3.42,6,5.34a2.92,2.92,0,0,1,0,3.21C286.81,366.93,284.88,367.57,283.6,368Zm13.89,24.57c-3.85.21-7.69-2.78-9.4-6.41-.86-1.92.21-3.21,1.92-4.7.64-.64,0-2.14.22-3.42s1.71-.43,2.13-1.5.43-2.13,1.29-3.2c2.35-2.14,4.7-1.28,6,.43,1.07,1.49-1.5,4.48.43,5.34,5.55,2.13,8.33-5.13,12.6-8.12,1.29-.86,3.85,1.92,2.36,3.84C309.67,381.67,307.32,391.93,297.49,392.57Zm21.8,14.32c.21,1.92-3.21.85-4.49.43-3.85-1.29-9.19-4.06-9-8.55,1.49,0,2.35-1.5,2.56-2.35.85-4.49,2.56-8.76,6.2-8.76,5.77,0,16.24-8.55,15.6,0C329.55,394.92,318.65,397.91,319.29,406.89ZM394.09,434c-18.38-3-36.55-4.27-53.22-12.61-5.13-2.56-9.61-6.2-14.31-9.19l2.13,1.29a2,2,0,0,0-.77-.77,10.47,10.47,0,0,0-1-.52c-.78-.38-1.39-.7-.81-1.28,3.2-4.06,3.2-9.4,7.26-12.61.43-.43,1.93-1.71,2.57-.85,3.2,3.63,3.42,8.33,6.19,12.39a19.54,19.54,0,0,0,5.13,4.28c12,7,24.58,10,38,13,7.7,1.71,15.6-.43,23.51,1.71,3,.64,6.41,0,8.76,2.56.86.86-1.07,1.29-.64,2.14C409.26,433.18,401.78,435.1,394.09,434Zm26.49,141.26c0,.64-1.06,1.49-1.28,1.28-2.14-.64-4.7-.64-6.62-1.07-3.42-1.07-1.28-7.26-1.5-11.32a2.56,2.56,0,0,1,1.5-2.14c2.56-1.5,5.55-1.28,7.05.85,2,2.94,1.42,6.25.78,9.47a11.28,11.28,0,0,1,.07,3Zm15.82,10.47c-4.92,0-5.13-5.13-7.48-8.12-.64-.64-1.92,1.07-2.35-.86-.86-5.34-1.5-10.47.43-15.38,1.28-2.78,5.77-3.64,7.47-.65,4.54,7.52,1.07,16.71,1.93,25Zm15,5.77c-2.35-3.21-5.77-4.7-8.34-7.27v2.35c-.43-9.4-1.28-15.38-.43-23.08a4.77,4.77,0,0,1,3.42-4.27c3-.85,6.63.21,7.06,3,2.13,11.33,2.77,20.09,4.7,30.13-1.75.45-5.38.24-6.45-.83Zm16.88-39.75c2.14.43,3.2,2.56,4.27,4.49,7.06,12,10.05,24.79,14.32,37.61-6.2,1.49-12.39,1.49-18.59,1.28-1.28-.21-2.57-1.92-2.78-3.42-1.92-7.69-4.27-19-7.27-31.2-.42-1.49,1.93-6.84,3.85-7.69a9,9,0,0,1,6.16-1Zm-5.13-8.33c-5.13-.86-12,2.35-15.39-1.71-1.28-1.5,2.57-3.64,1.07-5.56-1.28-1.28-3.85-2.78-4.49-1.28-1.49,2.35.43,6.84-1.06,9-1.93,2.35-8.77,2.35-9.83-1.92,3.42-.85,7.69-1.71,6.19-5.77-1.06-2.56-4.7-4.27-8.54-3.85.42,3.85.42,7.91-1.07,10.9-1.5,2.78-5.13,0-7.7.22v-3.64c2.57.64,5.35-.43,4.28-3.84-1.28-4.28-4.49-9-8.34-6-4.06,3,0,10.47-4.48,13.89a5.45,5.45,0,0,1-7.06-1.28,3,3,0,0,1,0-1.92c1.5-1.93,4.06-1.07,5.77-1.93,3.21-1.71,1.93-6.41,1.93-9.4,0-1.71-3.64-3-5.35-1.92-.85.64-2.77.85-2.35,2.78-3-3.85-1.92-10.05.64-11.76,5.56-3.84,13.47-1.49,20.31.43,10.47,2.78,21.58,0,32.48,1.5-.26,7.91-.47,16,2.95,23.09Zm-49.79-66.68c.21,1.28,3.63,1.07,1.92,2.56-1.07,1.07-3.42,2.36-4.7.22-1.11-1.9,1.43-2.32,2.74-2.75Zm49.58,26.5c5.34.85,11.54,6.41,8.33,11.54-.85,1.49-4.27-.64-6.62-.86-3.85,0-7.48,2.14-11.33,2.35-.95.12-1.38-1.09-2-2.07L449,513.1a1.72,1.72,0,0,1,1.18.07c-3.74-3.36-7.17-8.45-11.23-6-2.78,1.49-5.77,2.35-8.55,1.28-.64-.22-1.49-1.93-.64-2.57,2.14-1.49,2.35-4.7,5.13-5.34,6.41-1.71,12.4.64,18,3.85,3,1.87,6.84-1.76,10-1.12Zm-2.35-41.46c-.65,2.35-1.5,5.77-4.28,6-4.48.42-2.13,8.12-4.7,9.82-5.77,3.42-13,1.93-19.66,2.14,0-.85-.21-1.92,0-2.14,4.06-2.35,4.06-5.77,2.56-9-.64-1.5-3.63-1.28-4.48,0-2.35,3.42.21,8.55-2.35,11.32-.86,1.29-3.85.86-6.2.22-1.92-.43-3.42-2.57-1.92-3.85.85-1.07,3.41.22,4.7-.64.64-.43.21-2.14.21-3.42,0,.43-.21,1.07-.21.64-.43-3-2.35-5.77-5.56-4.91-1.71.42-2.78,2.77-4.7,3.42-.21-3.21-3-5.13-5.77-5.77-.43,2.56-3.42,1.71-4.28,1.06-2.56-1.49.65-4.06-.21-6.41,13.25-2.13,26.5,1.5,40-1.71.65-.21,1.07-1.92,1.71-2.56,1.5-1.28,2.78-3,5.13-3-.43-2.35,1.71-2.78,3-3.64,1.5-1.06,4.07,0,4.71.86a13.83,13.83,0,0,1,2.26,11.6Zm72.87-51.93c-1.07,7.7-10.47,9.4-17.1,11.33-16.45,5.13-32.69,8.55-49.79,12.82-8.88,2-17.94,3.46-27,2.72l-1.62-.16,5.13.86c-3.63.21-7.05-1.28-10.25-2.56-.22,0-.22-1.07,0-1.07,7.69-3.21,16-1.71,24.36-3,11.32-1.93,21.79-5.35,32.48-9,5.56-1.71,10.26-6,15.81-8.76,1.28-.64,3.21-.22,4.28-1.07,4.91-4.7,11.32-5.34,17.31-7.69,3.78-1.65,6.78,3.47,6.35,5.61Zm17.7-6.85c-1.07,3.21-3.64,7.06-7.06,5.77-6.84-2.35-8.54-9.83-12.82-15.38-.43-.43.22-1.07.86-1.29a3.68,3.68,0,0,1,2.13,0c1.71,1.07,1.5,4.06,4.49,4.49,4.06.64,1.71-3.63,3.21-4.91,1.06-.86,2.13,1.71,4.06,2.35C549.45,395.14,552.44,399.41,551.16,403Zm19-14.8a4.75,4.75,0,0,1-.19.91l-.85-2.35c-.22,3.85-2.78,6.63-3.42,10.47-.43,1.93-4.06,1.07-5.13.43-5.77-4.7-8.34-11.75-13-17.52,1.5,0,3.42-.43,4.28.21,4.91,4.7,10.89,1.28,15.6,3.42a4.46,4.46,0,0,1,2.7,4.47Zm28.23-25.59c-1.49,1.71-2.56,6.63-5.34,5.35-4.06-2.14-6-6.2-9.62-9.41-.85-.85.86-1.71,1.29-1.92,2.77-.64,6,2.35,7.9-.43,1.5-2.13-1.71-5.55.43-7.69.86-.85,2.35.21,3.63.43v-.64c3.21,1.92,7.7,4.7,7.48,8.12-.22,2.39-3.64,4.31-5.78,6.23Zm14.32-20.51c-.43.21-.64,2.35-1.92,1.07-1.28,2.56-.22,6-3,8.12-.64-1.5-1.93-2.14-2.57-3.64a8,8,0,0,0-4.91-3.42c-2.57-.64-2.78-4.06-5.13-5.55,3.63-4.49,11.54-2.35,16.88-1.28,2.35.25,2.14,3.88.64,4.74Zm8.12-22.87a8.75,8.75,0,0,1-12,2.88l-.16-.1c-1.28-.86-3.85-1.07-3.85-3.42,0-1.07-.42-2.35.22-2.78,2.78-2.78,7,.86,10-1.71a1.92,1.92,0,0,0,0-2.13c-1.92-2.14-7.9-5.13-4.7-6.42,6-2.31,14.56,6.88,10.5,13.72Zm13.47-19.44c-1.5,3.84-7.06,5.12-12.61,3.63-3.21-1.07-5.77-4.06-3.85-6,2.14-1.71,6.41-3.63,4.49-6.83-.64-1.07-.43-2.78-1.92-3.21-1.5-.21-3.42,1.07-4.49-.85a2.9,2.9,0,0,1,0-1.93c6.84-1.71,13,1.07,17.52,6,2.34,2.6,1.7,7.09.85,9.23Zm6.41-32.49c-2.14,4.06-5.56,6.63-6.63,12-.21.85-2.35,2.35-3.84,1.28-3.85-2.78-9-1.92-12-5.13-.43-.64-1.5-2.35-.86-2.56,4.49-.85,9.62,1.07,12.83-1.5,2.56-1.92,2.35-6.62,5.12-9,.65-.43,1.71-.22,2.78-.22.86,0,1.71-.21,2.14.22,1.94,1.32,1.09,3.67.45,4.95ZM642,250c-5.56-.21-10.47-3.63-16.46-3.84-1.28,0-4.06-.86-3.63-3.21.22-.43.64-1.28.86-1.28,4.48-2.35,9,.64,13.89-.22,3.42-.64,5.13,2.14,6.41,4.49C643.9,247.47,643.26,250,642,250Zm1.92-13.25c-.85,1.5-2.77-.64-3.2-.85-3.64-3.21-8.76-2.14-12.82-4.92-1.71-1.07-3.64-4.27-1.5-4.49,4.7-.42,7.69-3.2,12.61-3.63a5.22,5.22,0,0,0-.86,1.5c2.78-1.28,3.42-4.06,4.7-6.63.86-1.71,3-.64,3,0,1,6.44,1,13.27-2,19.05Zm2.35-23.5c-3.63.85-8.54,2.77-10.25.21-2.78-4.06,5.13-1.5,8.12-1.5,1.06-.21,1.92-2.13,2.77-.85a1.28,1.28,0,0,1,0,1.82,1.3,1.3,0,0,1-.65.35ZM649,155.36c-3.2,9.83-10.68,19.88-6.84,30.35,2.35,6,6.2,13.46,2.57,18.81-2.57,3.84-8.12,5.12-13.25,1.92-1.28-.64-1.07-2.35-.64-3.42,2.35-4.49,8.54-7.48,6-13.46-2.78-6.42-1.28-13.47-3.42-19-2.14-5.77-10.69-8.77-12.4-15.39-2.56-11.11,13.68-9.4,21.59-8.12C646,147.46,650.74,150.66,649,155.36Z" style="fill:#fff"/><path id="path35" d="M558.33,715.66h0l.41.23.41.26c.8.54,1.5,1.29,1.5,1.67h0v.11h0a23.81,23.81,0,0,1-.93,5.92c-1,4-1.89,7.88,1.85,10.21h0c2.19,1.46,5,1.27,7.66,1.08,1-.07,1.9-.14,2.82-.14h0a16.11,16.11,0,0,0,6.54-1.49c.53-.24,1-.51,1.54-.79a14.51,14.51,0,0,0,6-6.26l1.35.63A15.88,15.88,0,0,1,580.9,734c-.55.31-1.11.6-1.67.86a17.74,17.74,0,0,1-7.16,1.62h0c-.89,0-1.8.06-2.71.13-3,.2-6,.42-8.58-1.32h0c-4.66-2.9-3.59-7.34-2.51-11.82a24.24,24.24,0,0,0,.88-5.54v-.16c0-.07-.39-.13-.83-.43a3.13,3.13,0,0,0-.34-.21h0l-.32-.18h0ZM504,720.72c.82.07,1.52.15,2.22.22,3.81.41,7.54.81,12.25-.41h0a10.46,10.46,0,0,0,1.19-.41c.39-.16.79-.34,1.17-.54,1.9-1,3.53-2.5,3.93-4.26h0c.25-.87.44-1.83.62-2.79.6-3.12,1.2-6.25,4.3-7.52h0c2.8-1.15,5,.31,7.29,1.83,1.87,1.25,3.83,2.55,6.12,2.18l.24,1.47c-2.87.46-5.08-1-7.19-2.4s-3.83-2.55-5.9-1.7h0c-2.35,1-2.87,3.69-3.39,6.42a27.58,27.58,0,0,1-.66,2.91c-.52,2.22-2.45,4-4.68,5.22a14.06,14.06,0,0,1-1.31.61c-.45.18-.9.33-1.34.46h0c-5,1.29-8.85.88-12.8.46-.76-.08-1.53-.17-2.2-.23Zm32.37-4.58a9.41,9.41,0,0,0-1.5,2.56,2.2,2.2,0,0,0,.21,2.09h0a16.87,16.87,0,0,0,1.46,1.59,8.28,8.28,0,0,1,2.73,4.24h0a2.7,2.7,0,0,0,.08.41h0a8.11,8.11,0,0,1-1.34,6.3,9.15,9.15,0,0,1-5.48,3.48h0l-.47.1h0a27.76,27.76,0,0,1-10.12,0,51.37,51.37,0,0,1-9.51-2.79l-3.82-1.44h4.93V733a49.75,49.75,0,0,0,8.65,2.49,26.26,26.26,0,0,0,9.6,0h0l.41-.08h0a7.72,7.72,0,0,0,4.61-2.9,6.64,6.64,0,0,0,1.08-5.17h0a.63.63,0,0,0-.07-.35h0a7,7,0,0,0-2.32-3.48,19.63,19.63,0,0,1-1.57-1.72h0a3.55,3.55,0,0,1-.43-3.46,11,11,0,0,1,1.71-3l1.2.9Zm21.73-8c1.77.26,3.53-.46,5.23-1.15,2.46-1,4.84-2,7.42-.47h0a6.62,6.62,0,0,1,3.45,7.1,18.39,18.39,0,0,1-2.09,6.07c.63-.13,1.26-.24,1.88-.35,2.31-.41,4.6-.82,6.15-2.24h0a19.43,19.43,0,0,1,1.85-1.42h0a11.08,11.08,0,0,0,2.93-2.7l1.24.83a12.1,12.1,0,0,1-3.3,3.08h0a20.46,20.46,0,0,0-1.73,1.34h0c-1.88,1.71-4.37,2.15-6.89,2.6a29.4,29.4,0,0,0-3.35.73h-.09l-1.87.59,1-1.68a19.29,19.29,0,0,0,2.76-7,5.23,5.23,0,0,0-2.7-5.62h0c-2-1.13-4-.3-6.11.56-1.89.76-3.84,1.55-6,1.24Z" style="fill:#fff"/><path id="path39" d="M523.69,654a29.94,29.94,0,0,0-9.86.22,57.32,57.32,0,0,0-9.64,2.74l-.52-1.4a57.72,57.72,0,0,1,9.91-2.81,31.21,31.21,0,0,1,10.34-.22ZM504,649.55h0a5.57,5.57,0,0,0,1,0,5.75,5.75,0,0,0,1-.15,5,5,0,0,0,3.48-2.4h0a2.2,2.2,0,0,0,.27-1.42,1.8,1.8,0,0,0-.76-1.07,4.4,4.4,0,0,0-1.74-.66,6.17,6.17,0,0,0-3.81.51l-.7-1.31a7.63,7.63,0,0,1,4.77-.67,5.76,5.76,0,0,1,2.35.92,3.24,3.24,0,0,1,1.36,2,3.76,3.76,0,0,1-.39,2.35h0a6.46,6.46,0,0,1-4.48,3.22,7.91,7.91,0,0,1-2.38.18h-.06l.12-1.49Zm33.71,9h0c-.85-.24-1.76-.46-2.66-.69-4.68-1.15-9.38-2.32-12-6.65-.17-.25-.35-.52-.51-.81h0a15.54,15.54,0,0,1-2.09-8.29,12.16,12.16,0,0,1,.15-1.48c-.37-.09-.75-.19-1.14-.31h0a18.68,18.68,0,0,1-2.1-.75h0c-3.3-1.38-6.32-3.73-6.78-7.24-.65.32-1.31.63-2,.94-3.16,1.43-6.54,3-7.73,6.24l-1.4-.51c1.41-3.87,5.08-5.53,8.52-7.1,1-.46,2-.92,2.92-1.41h0l1.16-.64,0,1.32c-.14,3.41,2.74,5.7,5.92,7h0a18,18,0,0,0,2,.7h0l1.07.29a8,8,0,0,1,3.14-4.33l.48-.3h0a10.69,10.69,0,0,1,1.16-.44h0c.41-.12.84-.23,1.27-.31,2.32-.43,5-.18,6.71,1.55h0a13.42,13.42,0,0,1,1.5,1.69,16.37,16.37,0,0,1,1.25,2c1.9,3.67,2.38,8.31-.11,11.79l-1.22-.87c2.12-3,1.68-7,0-10.23a13.88,13.88,0,0,0-1.12-1.8,12.05,12.05,0,0,0-1.34-1.51h0c-1.33-1.32-3.49-1.5-5.38-1.14a10,10,0,0,0-1.11.27h0a7,7,0,0,0-1,.37h0l-.34.22a7.47,7.47,0,0,0-3,6.1,14,14,0,0,0,1.89,7.47h0a6.76,6.76,0,0,0,.46.72h0c2.33,3.83,6.74,4.93,11.12,6,.9.22,1.8.44,2.71.7h.05l-.41,1.44Zm-8.8-16.11a10.3,10.3,0,0,1,1.32,2.33h0a5.55,5.55,0,0,1,.31,2.68l-1.49-.19a4.14,4.14,0,0,0-.22-2h0a8.78,8.78,0,0,0-1.14-2Z" style="fill:#fff"/><path d="M460.6,721.32a9,9,0,0,0-3.66-1.9,8.35,8.35,0,0,0-4.7.18h0c-2.15.68-2.53,3-2.9,5.31a12.82,12.82,0,0,1-1.15,4.16h0c-.81,1.41-2.58,1-4.56.47h0c-.7-.19-1.41-.35-2.12-.47-.09.53-.19,1-.29,1.5h0a12.85,12.85,0,0,1-1.47,3,13.85,13.85,0,0,0,12.61,2.24,16.93,16.93,0,0,0,2.35-.94,20,20,0,0,0,2.24-1.29H457c.51-.28,1-.51,1.48-.74,1.91-.91,4-1.89,4.57-4.14a7.23,7.23,0,0,0-.16-4.12A7.82,7.82,0,0,0,460.6,721.32Z" style="fill:#fff"/><path d="M404.87,717.34c-.41.06-.83.14-1.25.23a6.51,6.51,0,0,0,.82,1,3.67,3.67,0,0,1,.89,1.51h0c.09.24.15.41.51.41h.06a7,7,0,0,1,4.27,2.19c.27.25.55.49.83.71a6,6,0,0,1,2.21-1.71h0a7.66,7.66,0,0,1,2.54-.64,11.71,11.71,0,0,0-8.61-3.87A13.27,13.27,0,0,0,404.87,717.34Z" style="fill:#fff"/><path d="M566.54,678.93V599.44H291.94v79.49H242.36v88.26H615.48V678.93ZM449.63,653.62h0c-.28.54-.56,1.07-.83,1.54l-1.29-.75c.27-.47.53-1,.8-1.48h0c1.32-2.53,2.76-5.3,5.84-5.3h0a9.76,9.76,0,0,1,4.46,1.48,14.05,14.05,0,0,0,3.18,1.32l-.33,1.46a14.6,14.6,0,0,1-3.54-1.46,8.76,8.76,0,0,0-3.77-1.3h0C452,649.12,450.75,651.48,449.63,653.62Zm10-10.62c-1.68-.5-3-1.41-3.4-3l-.14-.5c-.74-2.63-1.43-5-3.76-6.29a5.88,5.88,0,0,0-2.75-.37,17.61,17.61,0,0,0-3.31.64,16.6,16.6,0,0,0-4.83,2.94,31.93,31.93,0,0,1-3.35,2.34h0a18.09,18.09,0,0,1-13.38,1.35,43.82,43.82,0,0,1-12.57-5.85h0a10.89,10.89,0,0,0-4.85-1.6h0a7.37,7.37,0,0,0-.94,0,5.06,5.06,0,0,0-.88.16h0c-1.48.42-2.55,1.72-3.62,3a12.2,12.2,0,0,1-3,2.91h-.05a9.55,9.55,0,0,1-3.39.53,7.11,7.11,0,0,0-3.55.69h0c-1.2.74-1.3,2.25-1.39,3.69s-.19,3-1.29,3.93h0c-.57.46-1.27.94-2,1.42s-1.39,1-1.89,1.36h0a2.54,2.54,0,0,0-.86,1.92,13.76,13.76,0,0,0,.1,2.94l-1.48.17a15.45,15.45,0,0,1-.11-3.26,4,4,0,0,1,1.49-3c.56-.45,1.25-.92,1.93-1.39s1.36-.94,1.85-1.34h0c.64-.57.71-1.71.79-2.9.12-1.82.24-3.73,2.09-4.87h0a8.34,8.34,0,0,1,4.31-.93,8.29,8.29,0,0,0,2.79-.38,11.32,11.32,0,0,0,2.62-2.55c1.22-1.47,2.44-2.94,4.36-3.49h0a8.62,8.62,0,0,1,1.13-.2,11,11,0,0,1,1.15,0h0a12.35,12.35,0,0,1,5.55,1.81h0a42.19,42.19,0,0,0,12,5.79,16.66,16.66,0,0,0,12.31-1.21,28.55,28.55,0,0,0,3.17-2.21,17.6,17.6,0,0,1,5.29-3.18h0a18.28,18.28,0,0,1,3.61-.69,7.28,7.28,0,0,1,3.51.52H453c2.9,1.56,3.66,4.26,4.5,7.21l.14.51h0c.24,1,1.17,1.57,2.37,1.93a17.36,17.36,0,0,0,4.6.5v1.49a18,18,0,0,1-5-.54ZM440.8,654.62l-1.46.32a7,7,0,0,1,1.24-5.7l.24-.35c-6.19,2.55-13.28,3.24-19.66.85a21.89,21.89,0,0,1-4.59-2.36,23.33,23.33,0,0,1-4.15-3.59h0a5.15,5.15,0,0,0-2.53-1.49,2.44,2.44,0,0,0-.93-.06,1.14,1.14,0,0,0-.62.25,1.41,1.41,0,0,0-.4.76c-.53,2.85,2,5.59,5,7.51.61.39,1.24.74,1.86,1.06a19.4,19.4,0,0,0,1.86.82h0L416,654h0c-.64-.25-1.31-.55-2-.89a18.76,18.76,0,0,1-2-1.14c-3.45-2.21-6.32-5.47-5.64-9.06h0a2.85,2.85,0,0,1,.88-1.55,2.55,2.55,0,0,1,1.38-.61,4.11,4.11,0,0,1,1.48.08,6.76,6.76,0,0,1,3.31,2h0a21.5,21.5,0,0,0,3.89,3.36,20.14,20.14,0,0,0,4.28,2.2c7.62,2.86,16.39,1,23.12-3.17l.83,1.24h0a15.34,15.34,0,0,0-3.78,3.63,5.64,5.64,0,0,0-1,4.53ZM394.87,653c-.88,1.33-1.76,2.67-3.59,3.16l-.38-1.45c1.28-.34,2-1.43,2.72-2.53.95-1.43,1.89-2.86,4-3.25h0a10.83,10.83,0,0,1,3.28,0h0a8.29,8.29,0,0,1,6.48,4.75l-1.37.6a6.77,6.77,0,0,0-5.33-3.87h0a8.77,8.77,0,0,0-2.8,0h0C396.4,650.67,395.63,651.83,394.87,653ZM377,619.31v46.16h-3.85v-50h83.56v3.85ZM364.4,607.56v-1.92h99.8v3.83h-96v62h-3.85V607.56Zm-63.26,0v-1.93h55.35v3.85H305v62h-3.85V607.56Zm48.09,7.9v3.85H314v46.16H310.1v-50h39.13ZM255.39,761.21h-3.85V689.62H336.6v3.84H255.39Zm84.71-34.47A11.16,11.16,0,0,0,343,724l1.24.83A12.06,12.06,0,0,1,341,728h0a20.46,20.46,0,0,0-1.73,1.34h0c-1.88,1.71-4.37,2.15-6.89,2.6a27.39,27.39,0,0,0-3.35.73H329l-1.87.59,1-1.68a19.29,19.29,0,0,0,2.76-7,5.25,5.25,0,0,0-2.7-5.63h0c-2-1.15-4.06-.27-6.22.64a12.12,12.12,0,0,1-5.87,1.38l.14-1.48a11.15,11.15,0,0,0,5.15-1.27c2.5-1.06,4.91-2.08,7.54-.56a6.6,6.6,0,0,1,3.45,7.09,18.52,18.52,0,0,1-2.09,6.08c.63-.14,1.26-.25,1.88-.36,2.31-.41,4.6-.82,6.15-2.24h0a21.82,21.82,0,0,1,1.86-1.43Zm-76,28.48h-3.84v-56h71.8v3.84h-68V755.2Zm40.21-12.28a9.17,9.17,0,0,1-5.08,3.43c-.28.08-.54.14-.79.19h0a27.76,27.76,0,0,1-10.12,0,52.39,52.39,0,0,1-9.51-2.79L275,742.3h4.71v.19a49.74,49.74,0,0,0,8.87,2.57,26.2,26.2,0,0,0,9.59,0h0c.24,0,.47-.1.68-.16a7.67,7.67,0,0,0,4.26-2.85,6.23,6.23,0,0,0,1-4.88c0-.2-.09-.4-.14-.59v-.06a6.93,6.93,0,0,0-2.11-3.32,14.76,14.76,0,0,1-1.62-2c-1.1-1.35-.78-3.13,0-4.75h0c.15-.3.32-.59.49-.86s.37-.56.55-.8l.34.25.88.61h0c-.17.24-.34.48-.48.71a5.48,5.48,0,0,0-.43.74h0c-.59,1.16-.86,2.38-.18,3.17h0a14.43,14.43,0,0,0,1.47,1.76,8.19,8.19,0,0,1,2.48,4c.06.23.11.45.16.69a7.71,7.71,0,0,1-1.17,6.22Zm-2-25.25c-1.95-1.26-3.81-2.47-5.86-1.73-2.4,1-2.88,4-3.33,6.72-.14.87-.28,1.72-.47,2.51h0v.09h0a9.7,9.7,0,0,1-4.9,5.29,11.22,11.22,0,0,1-1.33.59,9.59,9.59,0,0,1-1.36.4h0a9.14,9.14,0,0,1-2,.31,6.39,6.39,0,0,1-4.71-1.71,9.28,9.28,0,0,1-2.52-4.49,14.74,14.74,0,0,1-.49-3.36l1.49,0a13.26,13.26,0,0,0,.44,3,7.82,7.82,0,0,0,2.1,3.77A4.83,4.83,0,0,0,283,730.4a7.1,7.1,0,0,0,1.64-.26h.06a9.6,9.6,0,0,0,1.16-.34c.39-.15.78-.32,1.16-.51a8.23,8.23,0,0,0,4.14-4.37v-.08h0c.18-.73.31-1.55.45-2.39.51-3.16,1.06-6.56,4.25-7.87h0c2.76-1,4.93.41,7.2,1.88,1.89,1.23,3.87,2.52,6.19,2.15l.23,1.47c-2.8.44-5-1-7.15-2.39ZM339,745.24c-.54.3-1.11.58-1.68.83a18.27,18.27,0,0,1-7.16,1.57h0c-.82,0-1.69.06-2.57.13-2.93.2-6.09.43-8.73-1.31-4.65-2.9-3.59-7.34-2.51-11.82a23.05,23.05,0,0,0,.89-5.54v-.16c0-.07-.39-.13-.83-.43l-.34-.21h0l-.32-.18h0l.67-1.33h0l.41.22.41.26c.79.54,1.49,1.29,1.49,1.67h0v.12h0a24.77,24.77,0,0,1-.93,5.92c-.95,4-1.89,7.88,1.85,10.21h0c2.21,1.47,5.12,1.27,7.81,1.07.93-.06,1.83-.13,2.68-.13h0a16.68,16.68,0,0,0,6.56-1.43,16,16,0,0,0,1.55-.78,14.81,14.81,0,0,0,6.17-6.34l1.34.65A16.34,16.34,0,0,1,339,745.24Zm16-96.42a6.27,6.27,0,0,0-3.93-.51h0a4.44,4.44,0,0,0-1.68.66,1.59,1.59,0,0,0-.7,1,2,2,0,0,0,.27,1.28h0c.93,1.86,3.23,2.79,5.74,2.79v1.49c-3,0-5.86-1.2-7.07-3.6h0a3.37,3.37,0,0,1-.42-2.26,3,3,0,0,1,1.31-1.92,5.63,5.63,0,0,1,2.26-.9h0a7.72,7.72,0,0,1,4.91.65Zm-5.79-11.58-1.28-.55c-.42,3.55-3.47,5.9-6.8,7.22a18,18,0,0,1-2.11.7l-1,.25a13.71,13.71,0,0,1,.19,1.68,16.43,16.43,0,0,1-2.07,8.37c-.13.23-.27.46-.42.7h0a13.37,13.37,0,0,1-1.08,1.4,28.2,28.2,0,0,1,10.28.16A65.51,65.51,0,0,1,355,660.06l-.5,1.41a66.3,66.3,0,0,0-9.85-2.83,26.74,26.74,0,0,0-9.85-.13l-.26-1.38c-2.86,3.11-7,4.14-11.05,5.15-.91.22-1.83.45-2.69.69h0l-.4-1.43h0c.92-.25,1.83-.48,2.74-.7,4.39-1.09,8.83-2.19,11.33-6h0c.12-.19.24-.4.37-.63a14.86,14.86,0,0,0,1.88-7.58,7.35,7.35,0,0,0-3.16-6.14h0l-.33-.2h0a5,5,0,0,0-.88-.4,7,7,0,0,0-6.49,1h0a11.57,11.57,0,0,0-1.28,1.52,12.74,12.74,0,0,0-1.1,1.8c-1.67,3.24-2.22,7.28-.1,10.24l-1.21.87c-2.49-3.49-1.9-8.12,0-11.79a14.06,14.06,0,0,1,1.22-2,12.87,12.87,0,0,1,1.43-1.7h0c1.72-1.71,4.49-2.09,6.78-1.65a8.38,8.38,0,0,1,1.28.35,6.79,6.79,0,0,1,1.13.52h0l.4.24a8,8,0,0,1,3.27,4.21l1.05-.24a16.93,16.93,0,0,0,1.94-.64c3.17-1.25,6-3.54,5.9-7v-1.26l1.12.56h0c.71.34,1.47.66,2.23,1,3.79,1.61,7.93,3.38,9.26,7.58l-1.42.45c-1.21-3.64-5-5.27-8.51-6.76ZM327.9,651.79a8.38,8.38,0,0,1,.39-2.63,6.82,6.82,0,0,1,1.28-2.33l1.15.95a5.41,5.41,0,0,0-1,1.84,7,7,0,0,0-.31,2.17Zm33.45,107.92H357.5V682.14h100V686H361.39v73.72Zm9-6h-3.84v-62h83.55v3.85h-79.7v58.15Zm31.32-11.65a6.12,6.12,0,0,0-2.27-1.29h0a6.87,6.87,0,0,1-3.34-2.2c-.33-.41-1.56,0-2.5.44l-.57.29-.38.25h0c-.78.62-1.47,1.2-2.14,1.78-2.22,1.88-4.4,3.74-7.26,4.75l-.5-1.41a22.16,22.16,0,0,0,6.79-4.48c.75-.63,1.49-1.27,2.19-1.81h0c.14-.1.32-.22.54-.35a7.24,7.24,0,0,1,.68-.35c1.41-.66,3.39-1.14,4.29,0a5.54,5.54,0,0,0,2.71,1.73h0A7.26,7.26,0,0,1,402.7,741Zm2.8-10c-.56-2.11-2.8-3.31-5.11-4.55a17.92,17.92,0,0,1-4.74-3.23h0a6.28,6.28,0,0,0-1.55-1.31h0a2.1,2.1,0,0,0-1.08-.11c.16.6.35,1.19.54,1.77a10.5,10.5,0,0,1,.8,4.32l-1.48-.15a9.57,9.57,0,0,0-.73-3.7,18.63,18.63,0,0,1-.76-2.72l-.13-.72.72-.14a4.41,4.41,0,0,1,2.71.07h0a6.83,6.83,0,0,1,2,1.63h0a17.19,17.19,0,0,0,4.36,2.93c2.6,1.4,5.13,2.76,5.85,5.49Zm60-3h0c-.77,2.92-3.15,4-5.37,5.11-.48.23-1,.46-1.36.67h0a20.62,20.62,0,0,1-2.41,1.39,17.63,17.63,0,0,1-2.58,1,15.3,15.3,0,0,1-13.93-2.47,16.62,16.62,0,0,1-6.73,4.54,38.8,38.8,0,0,1-12.75,2.24v-1.49a37.18,37.18,0,0,0,12.19-2c3.75-1.47,6.89-3.88,8.2-7.77a16,16,0,0,0,.44-3,8.22,8.22,0,0,0-.62-3.36h0c-.08-.19-.17-.37-.27-.56h0c-.11-.19-.22-.38-.34-.56h0a16.49,16.49,0,0,0-2-2.47h0a8.59,8.59,0,0,0-1.14-.87,6.92,6.92,0,0,0-1.27-.65,7.89,7.89,0,0,0-7.34.76h0a3.43,3.43,0,0,0-1.84,2.23,5.46,5.46,0,0,0,.63,3.19h0l-1.36.62h0a3.94,3.94,0,0,0-1.48-1.27,13.58,13.58,0,0,0-4.51-1.63,8.44,8.44,0,0,0-4.77.37h0a4.4,4.4,0,0,0-2,1.79l-.39.65-.64-.4a11.84,11.84,0,0,1-1.62-1.28,5.78,5.78,0,0,0-3.37-1.81c-1.38,0-1.59-.6-1.88-1.41h0a2.54,2.54,0,0,0-.53-1,8.37,8.37,0,0,1-1.29-1.67,2.8,2.8,0,0,0-2.36-1.54h-.16l-.14-.09h0l-.52-.34h0l-.56-.35c-.92-.56-1.79-1.06-2.38-1.35a23.53,23.53,0,0,0-6.2-1.29,7,7,0,0,0-5.41,2c-2.27,2.27-2.81,5.27-2.53,8.44a42.58,42.58,0,0,0,2.5,9.81l-1.41.48a43,43,0,0,1-2.58-10.17c-.31-3.56.32-7,3-9.62a8.44,8.44,0,0,1,6.5-2.4,24.9,24.9,0,0,1,6.65,1.36h.06c.65.32,1.61.86,2.57,1.45h0l.56.35h0l.42.28a3.86,3.86,0,0,1,2.6,1.29,15.37,15.37,0,0,1,1.93-.41,15.06,15.06,0,0,1,2.51-.17,13.24,13.24,0,0,1,10.15,4.87l-.54.45a12.19,12.19,0,0,1,2.08.19,15.42,15.42,0,0,1,5,1.78,4.44,4.44,0,0,1,.05-1.5,4.78,4.78,0,0,1,2.54-3.22,9.36,9.36,0,0,1,8.68-.89,9.76,9.76,0,0,1,1.51.77,11.06,11.06,0,0,1,1.36,1h0a16.61,16.61,0,0,1,2.21,2.73h0q.21.33.39.66h0c.12.23.24.46.34.69h0a9.79,9.79,0,0,1,.73,4v.35a23.58,23.58,0,0,1,2.33.5h0c1.39.35,2.65.67,2.89.24h0a11.64,11.64,0,0,0,1-3.66c.44-2.75.89-5.54,3.91-6.5a9.68,9.68,0,0,1,5.54-.21,10.58,10.58,0,0,1,4.28,2.22,9.41,9.41,0,0,1,2.71,3.95,8.76,8.76,0,0,1,.13,5.07Zm7.82-121.56h87.62v64.75H472.3Zm137.2,152.15H478.92V685.56H609.5Z" style="fill:#fff"/><path id="_46914736" data-name=" 46914736" d="M480.74,665.47V616.21H550v50.43H480.74v-1.17Zm2.35-46.91v45.73h64.54V618.56Z" style="fill:#fff"/><path id="_25245768" data-name=" 25245768" d="M490.79,749V694H599.34v56.2H490.79Zm2.34-52.68v51.5H597v-51.5Z" style="fill:#fff"/><path d="M229.75,851.82V848s0-38.89.21-40.82c1.93-9.4,2.78-18.8,7.91-22.22,2.14-1.5,2.56-5.77-3-5.13-3,.43-26.29,1.92-30.78-1.93l-4.91,25.65s15.6-1.5,3,9c0,0,.85,3.63.85,17.09,0,13.25,0,44.45-3,50.44h63c3,.64,3.63,2.13,3.63,7.26,0,5.35,3.85,18-6.63,21.59-10.47,3.84-16.24,4.48-20.73,4.48l-4.48,25.22s28.21-9,35.69-14.1c7.26-5.13,17.73-9,17.73-24.37,0-15.6,0-43.16,3.64-48.29Zm51.71,42.52c0,13-.21,16.46-4.06,19.45-5.77,4.92-29.06,13.89-29.06,13.89l2.35-7.9c3.85-1.29,9.4-3.85,18.81-7.48,8.55-3.64,5.13-29.07,5.13-33.55,0-4.28-.64-5.56-3-6.2H214.15c2.35-5.13,2.35-29.92,2.35-41.25s.64-24.57.64-24.57c10.69-8.76-5.56-6.63-5.56-6.63l-1.06-15.81c1.06,2.78,13.25,2.35,15.6,1.92,4.7-.64,4.48,3.21,2.56,4.49-4.27,2.78-2.78,5.77-4.27,13.89-.43,1.71-.86,57.27-.86,57.27v3.21h59.2C279.54,869.34,281.46,881.1,281.46,894.34Z" style="fill:#fff"/></g></g><path d="M106.71,1176.71q0,19.82-14.24,33.26l-13.64,13c-2.39,2.25-4.3,4.08-5.73,5.47s-2.37,2.36-2.84,2.89c-2.06,2.46-3.08,4.85-3.08,7.17a15.75,15.75,0,0,0,.79,4,13.16,13.16,0,0,1,.6,4.08,7.24,7.24,0,0,1-2.79,5.67,9,9,0,0,1-5.78,2.3,7.93,7.93,0,0,1-3.78-.9,9.27,9.27,0,0,1-2.89-2.39,11.14,11.14,0,0,1-1.84-3.44,12.69,12.69,0,0,1-.65-4q0-11.25,9-19.22l15.94-14.24q4.28-3.8,7.17-6.73a46,46,0,0,0,4.48-5.12,21.63,21.63,0,0,0,4.28-13.25q0-15.33-15.53-15.34H39.39c-4.92,0-8.23-1.26-10-3.78q-1.8-3.09-1.79-11.45a84.65,84.65,0,0,1,4.08-27.39q1.1-2.6-1.29-2.79l-2-.2q-7.75-.9-7.76-11a24.75,24.75,0,0,1,2.68-10.76,1.29,1.29,0,0,1,1.2-.9,1.16,1.16,0,0,1,1.2,1.1q.59,3.48,4.68,4.28l5.37.8a11.4,11.4,0,0,1,5.68,2.39q2.9,2.68,1.39,7.77-4.27,14.94-4.28,20.21,0,10.56,10.46,10.56H80.62q13.74,0,19.92,6.28t6.17,21.11Z" style="fill:#fff"/><path d="M205.22,1239.55q0,8.27-8.87,15c-1.06,1-1.86.92-2.39-.2q-3.68-8-12.25-18.13l-34.46-39.14q-2.28-2.68-4.88-2.69a6.54,6.54,0,0,0-4.48,2.09,14.54,14.54,0,0,0-4.88,11q0,5.37,4.48,13.24,6.67,11.46,6.68,17.83,0,7.08-5.08,14.64h-23.7c-1,0-1.53-.6-1.6-1.79s.33-2,1.2-2.29q9.86-3.28,7.17-14.24-3.89-16.53-3.89-19.82,0-5.77,4.68-13.15a41.81,41.81,0,0,1,5.13-6.67,50.62,50.62,0,0,1,6.13-5.48,3.75,3.75,0,0,0,1.79-3.08,4.85,4.85,0,0,0-1.59-3.19l-14-15.34q-4.47-4.87-4.48-10.36,0-7.77,8.77-14.14a1.83,1.83,0,0,1,3,.6,95,95,0,0,0,7.17,9.86l34.06,37.74q5.19-8.65,13-19.82c1.26-1.06,1.13-1.75-.4-2.09q-12.24-1.59-12.25-14.24,0-6.68,3.89-15.53a1.06,1.06,0,0,1,1.19-.8,1.36,1.36,0,0,1,1.3,1q.69,4.49,1.79,5.58c1.13,1.2,3.45,2,7,2.39l6.67,1.1a15,15,0,0,1,5.53,1.84,11.76,11.76,0,0,1,3.59,3.24,12.74,12.74,0,0,1,1.94,4.28,20,20,0,0,1,.6,4.88,21.5,21.5,0,0,1-2.3,9.76h-1.19q-2.69-2.6-5.48-1.59-5.77,1.79-13.64,19.81a16.51,16.51,0,0,0-1.49,6.48,14.87,14.87,0,0,0,3.88,9.76l16.73,19.62Q205.21,1234.26,205.22,1239.55Z" style="fill:#fff"/><path d="M284.2,1239.35q.69,13.25-14.64,15.44a1.31,1.31,0,0,1-1.39-.6,2.17,2.17,0,0,1,.19-1.6c1.46-2.25,2.19-6.54,2.19-12.84v-52q0-17.82-17.92-17.83h-25.3q-8.87,0-12.25-1.79-5.07-2.79-5.08-11.45,0-10.15,3.09-16.73a1.57,1.57,0,0,1,1.4-.8c.59-.13.92.13,1,.8q.6,5.58,3,7.17t7.87,1.59h28.78q15.74,0,22.21,6t6.47,21.61v41q0,5.78.05,9.41c0,2.42.08,4.17.15,5.23Z" style="fill:#fff"/><path d="M406.9,1163.46q0,7.47-7.27,19.52-7.47,12.84-17.13,44.52-4,13.05-6.57,18.12-3.29,7.58-14,7.57H311.3c-2,0-3.12-.2-3.39-.6s-.63-1.82-.9-4.28q-.5-5.77-1.19-12.65t-1.49-14.94q-.7-6.77-1.05-12.54c-.23-3.85-.35-7.41-.35-10.66q0-16.93,6.28-23.7c1.65-1.66,1.39-2.66-.8-3l-2.79-.4a23.43,23.43,0,0,1-4.58-.7,8,8,0,0,1-3.39-2.59q-2.88-4-2.89-10.45a39.75,39.75,0,0,1,3.69-16.73,1.57,1.57,0,0,1,1.39-.8c.6-.13.93.13,1,.8.53,3.38,1.26,5.51,2.19,6.37s3,1.53,5.78,1.59l6.37.6q11.65,1.1,11.65,12.85a25.17,25.17,0,0,1-.89,6.57q-1.2,5-3.49,3.59c-1.46-.86-3-.24-4.68,1.89q-4.08,5.58-4.08,22.91a96.51,96.51,0,0,0,4.78,29.37q1.78,5.68,5.28,5.68l22.8-58.76c.46-1.46-.2-2.29-2-2.49l-2.09-.2q-7.28-.69-7.27-13.24a36,36,0,0,1,3.58-14.64,1.5,1.5,0,0,1,1.3-.8c.73-.13,1.13.13,1.19.8.33,2.79,1,4.55,2,5.28q1,.69,5.18,1.19l8.77.9q9.56,1.1,9.56,13.24a16.1,16.1,0,0,1-1.59,7.47c-.6,1.13-1.1,1.7-1.5,1.7.46-.07.55-.14.25-.2a15.4,15.4,0,0,0-2-.2l-3.24-.15c-.63,0-.85,0-.65,0-.79.13-1.49.93-2.09,2.39l-21.41,56.76c-.4,1.07.1,1.6,1.5,1.6h16.33q9.26,0,14.24-5.28c1.33-1.53,3.29-5.14,5.88-10.86q5.37-13,15.13-32.36,3.39-5,6.28-6.77a3,3,0,0,0,1.89-2.69c0-1.2-.76-1.86-2.29-2l-6.47-.59-4.49-.6a9,9,0,0,1-3.68-3.09q-3.09-3.67-3.09-11,0-6.57,3.69-14.64a1.55,1.55,0,0,1,1.39-.8c.6-.13.93.13,1,.8.26,2.79.83,4.55,1.69,5.28s2.29,1.06,4.68,1.39l9,1.1Q406.91,1150.92,406.9,1163.46Z" style="fill:#fff"/><path d="M452.32,1168.74a37.1,37.1,0,0,1-5.17,18.62,44.73,44.73,0,0,1-12.95,14.44l-7.57,5.28a3.37,3.37,0,0,1-.8.2c-1.46,0-2.19-.8-2.19-2.39a1.44,1.44,0,0,1,.6-1.1q15-12.64,15-22.8,0-11.06-9.36-11.06H425q-12.85,0-12.85-13.44a38.85,38.85,0,0,1,3.29-16.53,1.42,1.42,0,0,1,1.19-.8c.73-.13,1.13.13,1.2.8.39,3.72,1.56,6.17,3.48,7.37q2.29,1.39,8,1.39h5.28q8,0,12.84,4.73T452.32,1168.74Z" style="fill:#fff"/><path d="M592.57,1239.35q.39,13.14-14.45,15.44a1.24,1.24,0,0,1-1.49-.6,2.17,2.17,0,0,1,.2-1.6c1.26-1.85,1.89-6.14,1.89-12.84V1188q0-18-18.12-18H540.78a14.68,14.68,0,0,0-13.65,8q-3.68,6.38-3.68,16.53,0,9.77,6.07,27.39Q532,1229,532,1233q0,8.58-5.08,20.62-2.28-.19-5.82-.3t-8.52-.1q-14.84,0-18.12,1.2l3.48-21.61c.87-.8,2.36-1.2,4.49-1.2h11.85c.53,0,.66-1.1.39-3.29q-1.38-10.05-2.14-15.93c-.49-3.92-.74-6.47-.74-7.67a67.85,67.85,0,0,1,2.09-16.13q2.88-10.75,7.47-15.94c1.32-1.33,1.06-2.15-.8-2.49q-6.67-.69-10-3.38-3.69-3.09-3.68-10.06,0-10.15,3.08-16.73a1.58,1.58,0,0,1,1.4-.8c.6-.13.93.13,1,.8q1,8.76,12.25,8.76h40.84q13.14,0,19.32,5.58,7.17,6.27,7.17,21V1222c0,.4,0,1.69.1,3.88s.16,5.32.3,9.36Z" style="fill:#fff"/><path d="M693.06,1195.93q0,58.65-43.42,58.66-41.24,0-41.23-47.91a57.37,57.37,0,0,1,3.08-17.92q3.39-10.86,8.77-16.54a1.94,1.94,0,0,0,.4-1.59,1.14,1.14,0,0,0-1.2-1.09q-15.93,0-15.93-12.85,0-10.15,3.08-16.73a1.58,1.58,0,0,1,1.4-.8c.6-.13.93.13,1,.8.39,3.72,1.62,6.17,3.68,7.37q2.59,1.39,8.17,1.39h36.75q19.6,0,27.88,11.65Q693.07,1171.23,693.06,1195.93Zm-11.65,4.68q0-31.08-27.49-31.07H636.79a11,11,0,0,0-8.27,3.28q-3.18,3.29-5.57,10.16a49.94,49.94,0,0,0-2.69,16.13,46.78,46.78,0,0,0,2,14.39,29.57,29.57,0,0,0,5.93,10.71,25.27,25.27,0,0,0,9.41,6.67,32.58,32.58,0,0,0,12.6,2.29q14.13,0,22.7-8.56T681.41,1200.61Z" style="fill:#fff"/><path d="M752.32,1233.77q0,7.08-6,20-3.5-.4-9.21-.6t-13.8-.2q-18.52,0-24.5,2l5.08-22.6c2-.67,7.17-1,15.54-1h11.15q6.38,0,5.58-6.17-.39-2.89-.6-8.22t-.2-13.2V1180a25.17,25.17,0,0,0-.39-4.83,7.11,7.11,0,0,0-1.35-3.09,5.22,5.22,0,0,0-2.64-1.64,16,16,0,0,0-4.38-.5h-8.56q-6.59,0-9.07-1.59-4.68-3.18-4.68-12.25a37.22,37.22,0,0,1,3.09-15.93,1.55,1.55,0,0,1,1.39-.8c.67-.13,1,.13,1.1.8.4,3.72,1.69,6.17,3.88,7.37,1.46.79,4.09,1.19,7.87,1.19h10.86q9,0,12.74,3.19t3.79,10.75c0,.73,0,1.53-.1,2.39s-.17,1.83-.3,2.89q-1,8.47-1.44,14.84t-.45,10.86q0,12.24,4.88,34.85A19.06,19.06,0,0,1,752.32,1233.77Z" style="fill:#fff"/><path d="M838.48,1197.32q0,55.88-40.24,55.87H771.75a65.17,65.17,0,0,0-12.65,1.2l5.28-22q2.79-.6,12.45-.6h21.41q29,0,29-31t-31.37-30.88H775q-6.67,0-9.86-2-4.29-3.09-4.28-11.25,0-10.15,3.08-16.73a1.58,1.58,0,0,1,1.4-.8c.66-.13,1,.13,1.09.8a14.86,14.86,0,0,0,1.1,4.53,6.46,6.46,0,0,0,2.14,2.69,7.81,7.81,0,0,0,3.39,1.24,32.91,32.91,0,0,0,4.73.3h20.61q21.22,0,30.18,10.26Q838.48,1169.93,838.48,1197.32Z" style="fill:#fff"/></g></g></svg>