<svg xmlns="http://www.w3.org/2000/svg" viewBox="0 0 63.77 35.5"><title>Asset 1</title><path d="M22.5,2.35h.1c0,.06,0,0,.07.09s-.14.08-.15.23,0,.05,0,.13c-.22.07-.48.52-.62.72s-.26.29-.37.43,0,.18-.07.26-.11.06-.13.09a9,9,0,0,1-.67,1c-.11.12-.1.32-.19.45a8.14,8.14,0,0,0-.54,1l0,.2c-.05.13-.14.35-.19.45l-.09.39a.25.25,0,0,1,0,.19l-.13.18a1,1,0,0,1-.08.37s-.1.08-.13.13l0,.27c-.06.18-.11.39-.18.56l0,.14c0,.11-.12.31-.15.41l-.06.43a4.19,4.19,0,0,0-.24.8l0,.21a3.84,3.84,0,0,1-.21,1c-.08.17,0,.47-.05.65a5.79,5.79,0,0,0-.21,1.4v.44a3,3,0,0,0,0,.79V16a2.08,2.08,0,0,0-.09.81,1.34,1.34,0,0,1,0,.64,1.47,1.47,0,0,0,0,.56c0,.06-.1.71-.11.74s0,.27,0,.37-.09.11-.08.25,0,.41,0,.69a2.15,2.15,0,0,1-.05.74v.39a.75.75,0,0,0-.06.39,2.73,2.73,0,0,1-.09.54l0,.79a4.25,4.25,0,0,0-.06,1,1.81,1.81,0,0,1,0,.46s0,.21,0,.26,0,.31,0,.45,0,.12,0,.17c-.07.32-.1.7-.15,1,0,0,.1.86.12.89s0,.34,0,.39a4.08,4.08,0,0,1,.07.84l.06,0c-.07,0,0,0-.06.09s0,.43,0,.6c0,.51.12.79.08,1.34a2.67,2.67,0,0,0,.05.89c.08.34-.11.35,0,.65,0,.1-.09.27,0,.42s0,.39.08.57a5.39,5.39,0,0,1,0,1.17l.06.15a2.36,2.36,0,0,1,0,.79c-.09,0-.07,0-.14.07s0-.14-.15-.15,0,0-.06,0-.09-.27-.11-.3l-.13-.05a2.37,2.37,0,0,1-.21-.3l-.05-.34c-.07-.08-.15,0-.19-.17s0,0,0,0a.26.26,0,0,1-.13-.21H16.8a4.46,4.46,0,0,1-.57-1s.07-.06,0-.14c-.13-.3-.26-.66-.39-.95s-.1-.54-.2-.75a15.28,15.28,0,0,0-.77-1.51c-.17-.25-.39-.51-.57-.74l-.06-.15-.09,0v-.13L14,28.15a10.4,10.4,0,0,0-.71-.9c-.12-.11-.15-.28-.34-.33-.4-.08-.74.69-1.13.78l0,.15a3.31,3.31,0,0,0-.62.5s0,0-.07,0v0s0,0,0,.06-.09.14-.15.2-.27.1-.36.19,0,.11,0,.15l-.19.09v.11s-.18.23-.22.28-.23.09-.28.17,0,.14-.06.21l-.17.05s-.32.36-.33.39v0c-.06.06-.19.08-.24.15s-.11.27-.21.35,0,0,0,0a.45.45,0,0,0,0,.25c-.17,0-.21.11-.36.15,0-.06,0,0,0-.12h0c0,.07,0,.06,0,.13s0,0,0,.08-.05.1-.09.15-.26.18-.35.3,0,.14-.13.15l0,0a2.12,2.12,0,0,0-.37.48c-.06.09,0,.18-.08.24a6.88,6.88,0,0,0-.93,1.31c-.1.16-.12.64-.32.69-.1-.16-.27-.08-.27-.36l-.08-.26c-.06-.12-.21-.25-.28-.37v-.09A5.1,5.1,0,0,1,5,32.6V32a3,3,0,0,1,.13-1.1l0-.41c.05-.11.09-.33.13-.44l0-.45a4,4,0,0,0,.15-.5l0-.3.1-.13a2.34,2.34,0,0,0,0-.43c.11-.33.11-.68.24-1l0-.35c.18-.56.13-1.36.33-1.92.07-.18,0-.34.09-.44l.15,0c0-.09,0-.09.12-.1s.07.06.13.08l.37.78v.21c0,.07.14.14.19.22s0,.3.07.43.21.28.28.43l0,.31s0,0,.07.09c-.13.08,0,.24-.09.4a7.16,7.16,0,0,0-.19,1.3h.1A4.42,4.42,0,0,0,8,28L8,28a7.22,7.22,0,0,1,.86-1c.11-.09.31-.13.33-.32l0,0,.19,0c.08-.33.55-.56.59-.75h.08a.33.33,0,0,1,.11-.13s0,0,0,0c.1-.19.4-.28.53-.45l.07-.18a.29.29,0,0,1,.17-.06.12.12,0,0,1,0-.11c-.18-.13-.28-.35-.45-.48h-.08c-.08-.08-.09-.23-.16-.3l-.12,0a3.55,3.55,0,0,1-.33-.34c-.14-.13-.08-.38-.36-.39l0,0c-.09-.22-.37-.35-.39-.65a.33.33,0,0,1,.13,0c0,.06.07.08.15.1v-.15c-.1-.07-.06-.13-.25-.13l-.18,0c0-.26-.21-.34-.32-.5s-.06-.37-.19-.49-.26-.13-.29-.35c.08,0,.07,0,.13-.06a1.35,1.35,0,0,0,.37.3h.13s.09.17.11.19l.15.05c.07.05.09.18.15.24a1.39,1.39,0,0,0,.28.12l0,0v0c.13.06.27.39.41.5s.29.3.44.41.36.12.49.24l.45.43c.11.11.52.58.65.56s.27-.27.41-.39.46-.32.69-.51.24-.36.46-.39c0,.05,0,0,.08,0v-.19h.08c.1-.16.25-.14.41-.26s.58-.61,1-.56a.26.26,0,0,1,.21-.13c0,.06,0,0,.05.13s.06.07.06.17-.1.05-.17,0c-.07.16-.22.28-.24.47.06,0,0,0,0,.13H15l-.08.13,0,0c-.17,0-.25.06-.24.29a.7.7,0,0,0-.39.3.78.78,0,0,1,.22,0c0-.05.11,0,.15-.1s0-.12.09-.18l.28-.07a.47.47,0,0,1,0,.14h-.19c0,.08,0,.06-.05.11s0,0,0,.06h-.12v0c.07,0,.07.1,0,.15l-.12,0a1.33,1.33,0,0,0,0,.28h-.06c0-.05,0,0-.06,0,0,.15-.06.3,0,.35l0,0v.08c-.06,0-.06,0-.07.13s.18.2.33.24v0c-.07-.1,0-.14,0-.26h-.09s0,0,0,0,.05-.08,0-.19-.06,0-.09-.06c.13-.07.47-.26.5-.42l-.05,0,0-.05s0,0,.09-.06,0,.07.09.09,0-.07.12-.09l0,.08c-.14.07-.24.21-.39.29s0,.11-.06.23h0c0-.12,0-.15.12-.19l.05,0v.08s0,0,0,0a.34.34,0,0,0,.19,0s0,0,.09,0V24c.07,0,0,0,.08,0l0,.13a.9.9,0,0,1,.42-.22.37.37,0,0,0,0,.18c-.14,0-.13.15-.2.25s-.6.25-.73.5l-.06,0a.8.8,0,0,1-.35.45h-.11l-.24.35c-.16.2-.47.3-.6.53,0,0,0,.06.05.1a2.27,2.27,0,0,1,.4.42c.06.09.07.21.15.29a8.38,8.38,0,0,1,.91,1.44c.12.19.31.37.43.56s.09.29.16.41a6.22,6.22,0,0,1,.43.58c.06.09,0,.14.1.2l.05,0v-.62c-.11-.12,0-.26,0-.43a17,17,0,0,1-.11-1.73v-.74c-.1-.34.1-.91-.07-1.32,0-.09.12-.36,0-.45a1.47,1.47,0,0,0,0-.39c-.07-.21.06-.3,0-.41s-.08-.17-.09-.21a4.63,4.63,0,0,0,.09-.65,6.75,6.75,0,0,1,.08-1.56c.07-.43-.1-.7.07-1.08,0-.06-.06-.08,0-.17a7.18,7.18,0,0,1,.06-.79,6.38,6.38,0,0,0,.09-1.35c.07,0,0,0,.06-.08v-.8c.1-.05.06-.41.05-.56.19-.17-.06-.47,0-.74s0-.57.06-.8c0,0,.05,0,.05-.1l-.05-.2a3.33,3.33,0,0,0,.05-.37v-.73c.12-.33,0-.79.13-1.1l0-.47c.11-.28.06-.8.15-1.09s.08-.38.13-.53v-.35c0-.09.08-.32.11-.41v-.3l.1-.05c0-.09-.06-.06,0-.13s.11-.17.13-.25,0-.38,0-.48a3.68,3.68,0,0,1,.15-.47l0-.31c.13-.33.17-.8.33-1.1l0,0a.78.78,0,0,0,.07-.3c-.05,0-.06,0-.07-.11h-.1v.09c.05,0,0,0,.06,0V6.6l-.15.05,0-.07c.05,0,0,0,0-.08s-.15,0-.21,0c0,.12.07.1.08.24s-.38.18-.41.21,0,.12-.17.19L16.88,7A.47.47,0,0,0,17,6.84h-.1a.4.4,0,0,1-.24.09,1.45,1.45,0,0,0-.11.47h-.07v.11l.07,0a.77.77,0,0,1,.06-.28c.16,0,.13-.07.24-.11s.05,0,.05.14-.06,0-.09.06.05,0,0,.09,0,0-.08.06v.09l-.2.1s0,0,0,.05,0,.09-.13.11l0,.1,0-.13c-.05.09-.08.06-.09.18a2.44,2.44,0,0,1-.36.06c0,.17-.14.21-.16.37v.07c-.15.07-.2.26-.35.34h-.07c0-.05,0-.05-.08-.07v.09c.05,0,0,.05,0,.13s-.08,0-.09.09h0a.75.75,0,0,1,.15,0v.05c-.07,0,0,0-.07,0s.06,0,.13,0,.21,0,.24.06a2.46,2.46,0,0,1-.56.34l-.13-.21,0,0a.25.25,0,0,0-.13,0v.07c.07,0,.06,0,.09.06a.55.55,0,0,0-.19.31c.08,0,0,.09,0,.21l-.28.24c.06,0,0,0,.06,0h-.08l0-.09,0,.09h-.06v-.05a.26.26,0,0,0,.15-.17l-.19,0v.19c-.05,0-.05,0-.14-.06l0,.21a.18.18,0,0,0-.13.06c.09,0,.09,0,.1.13s-.06,0-.15.05v0c-.07-.18.14-.26-.06-.35-.15.26-.6.23-.6.63.05.06.06.22.1.25h.05s0,0,.1-.05,0,0,.05.11l-.26,0a.4.4,0,0,1,0-.13h-.09c-.06.09-.11.06-.11.24l0,0,.1,0a.18.18,0,0,1,.16-.18v.11l0,0c-.07,0-.06,0-.09,0s.05,0,0,.08l-.15.11v.15c-.1,0-.08.06-.21.07s-.06,0-.14,0v.16c-.09,0-.09.1-.19.13s-.08,0-.11-.11.05,0,.05-.07h-.05s0,0-.1,0l0-.06a.33.33,0,0,1-.13,0c0,.06-.07.07-.09.15l0,.13.07,0v0l-.3.29,0,0c0,.15-.07.14-.11.24a.48.48,0,0,1,.11.09H12c0-.06-.07-.06-.1-.15l0-.13c-.06,0-.13,0-.2,0l0,0-.1,0s0,0-.07.11.1,0,.13.07-.28.58-.3.75h.06a.2.2,0,0,1,.16-.13l.06,0v-.06c-.06,0-.07,0,0-.06a.61.61,0,0,1,.15-.13v-.11c.14,0,.13,0,.21-.09V13c-.1.07-.09.17-.24.19v.11a.24.24,0,0,0-.1.1s-.41.06-.45.16l.08,0,0-.09,0,0,0,.09h-.12a.92.92,0,0,1-.13.24l-.11,0a.87.87,0,0,0-.07-.17h0v.06l0,.09-.11,0,0-.11c.06,0,0,0,.05,0l0,0c-.15.07-.21.23-.4.21,0,.07-.16.28-.13.31l.17,0c0,.09,0,.07.11.08v.09a.32.32,0,0,1-.15.09v0c0,.06,0,0,0,.05s-.05-.06-.15-.05-.12,0-.17.07l0,.08h.1v.05a.24.24,0,0,0-.06.08l0,0c-.17.27-.82.29-.9.63,0,0-.05.17,0,.26h0c.05-.05,0,0,.09,0v.09s0,0,0,.06h.09v.14a.94.94,0,0,0-.39.4v.09c0-.05,0,0-.09,0-.06.26-.34.35-.51.5s0,.11-.05.14-.12,0-.17,0,.05,0,.05.11c-.18.13-.33.39-.55.49v-.19h0s-.09,0-.19.06l0,.13-.08,0c-.08.14-.21.1-.33.19s-.08.16-.3.24c0,.14,0,.15-.06.28H6.43a1.4,1.4,0,0,0-.19.43c.1,0,.16,0,.17.14l-.08,0c0-.07,0,0-.07,0v0s0,.06,0,.13-.16.13-.28.15v0a.34.34,0,0,0,.11-.17l-.08-.06c.1,0,.12-.07.13-.17H6.05c0,.11-.12.13-.14.24a.9.9,0,0,0,0,.24l.11,0c0,.08,0,.11,0,.22-.19.13-.27.37-.45.49s-.18.07-.24.15-.06.25-.27.27a2.24,2.24,0,0,0-.37.32.16.16,0,0,0-.11-.05,1.17,1.17,0,0,1-.09.24c-.08,0-.12,0-.15.11s-.08.24-.15.33S4,21.36,4,21.5l-.2.05c0-.06,0-.06-.12-.07a.42.42,0,0,1-.24.19l0-.06.07,0c0-.07,0-.14,0-.2-.05.1-.13.12-.15.26s.06,0,.07.11-.2.09-.22.13,0,.13-.08.19a.34.34,0,0,1,.06.2c-.16.06-.19.27-.34.35s0,0-.05,0,0,.06-.12.09V22.6a.24.24,0,0,0,.06-.08H2.64c-.05.09-.11.06-.13.21l-.12,0-.08-.11,0,0s0,0,0,.15l0,.24c-.15,0-.23.21-.39.24v-.14c.1,0,.1,0,.13-.1H1.86a.29.29,0,0,1-.24.15.39.39,0,0,1-.11.3c-.06-.16-.33-.12-.45-.1L1,23.3s0,0,0,0S1,23.11.89,23.06.76,23,.71,23a.91.91,0,0,1-.06-.26A2,2,0,0,1,0,21.76,5.4,5.4,0,0,0,1.27,20.6l0,0v-.11h.12c.07-.21.38-.35.52-.5s.15-.29.26-.4.44-.28.54-.48.06-.19.15-.26H3a2.51,2.51,0,0,0,.54-.63l0,0h.13v-.06s0,0,0,0c.25,0,.68-.55.8-.76l0,0c.07,0,.06-.05.11-.09l0,0c.06-.16.33-.27.44-.39l0-.11c0-.05.16-.08.19-.13l0-.12c.06-.06.13-.06.2-.11s.1-.17.15-.24a4.31,4.31,0,0,0,.43-.5l.17-.1a2.51,2.51,0,0,0,.58-.74s0,0,.11,0a4.09,4.09,0,0,1,1-1c.08-.06.07-.22.15-.28a2.15,2.15,0,0,0,.41-.32,4.61,4.61,0,0,1,.54-.63l.09,0s0-.1.06-.13a1.77,1.77,0,0,0,.24-.17c.11-.13.18-.28.29-.42s.24-.12.3-.21,0-.2.1-.24h.11l.26-.22c.28-.29.5-.62.78-.9.07-.07.19-.09.24-.17a1.77,1.77,0,0,1,.36-.41l.09,0c.07-.28.81-.77,1-1s.22-.37.41-.43l.09,0V8.2c.2-.11.3-.37.48-.51a2.55,2.55,0,0,0,.38-.26c.15-.14.27-.43.5-.48V6.87c.23-.06.63-.67.84-.83.63-.49,1.12-1.09,1.73-1.59.11-.08.15-.27.26-.35s.15-.06.21-.11,0-.14.09-.19a2.91,2.91,0,0,1,.33-.26c.15-.14.25-.38.43-.48l.1,0v-.1c.33-.18.53-.59.8-.85a11.25,11.25,0,0,0,1-.88s0,0,0,0,0,0,.06-.09V1.1c.53-.23.65-1,1.28-1.1a1.11,1.11,0,0,1,.27.8.88.88,0,0,1,.2.3v.24a1.91,1.91,0,0,1,.24,1M18.16,5.61l0,.07h.08l0-.07Zm-.2.65a.33.33,0,0,0,0,.13s0,0,.06,0V6.28ZM32.43,7.58h-.09c.11.12-.07.16,0,.3s.08.12.06.26-.11.11-.1.26,0,.24,0,.39,0,0-.05,0-.07.16-.1.23,0,.16-.05.24-.66.31-.77.39l0,0c0,.07,0,0,0,.07-.26.15-.65.27-.82.51,0,0,0,0,0,0a2.09,2.09,0,0,1-.7.41v.07c-.22,0-.46.3-.61.41s-.34.14-.43.21a4.49,4.49,0,0,1-.67.5h-.19c-.08.05-.12.19-.2.24s-.15,0-.19,0-.28.32-.47.35l-.25,0c-.14.07-.36.34-.49.43s-.23.05-.28.13l-.07,0s-.09.13-.15.15,0,0-.09,0c-.08.15-.23.4-.42.44,0-.07,0,0-.07,0v0s0,0,0,.06a.17.17,0,0,0-.11.11c-.2,0-.4.12-.6.15s-.08-.06-.09-.17H24.2v.1c-.1,0-.12,0-.13.13l-.08.24-.09,0v0H24C24,14,24,14,24,14l-.09,0c-.09.12-.26.22-.28.4,0,0,0,0,0,.05s-.18.06-.24.09,0,.12-.09.15a.21.21,0,0,0-.17-.13v.13h0s0,0-.06,0a.37.37,0,0,1-.36.13.33.33,0,0,1,0-.13c-.08,0-.05,0-.11-.06v0l0,.2c-.08,0-.1,0-.13.11s.1,0,.13.06c-.16.11-.32.44-.48.48h-.06s0,0,0,0h-.09c-.13-.06-.37.11-.51.15l-.09-.06c0,.08-.06.09-.09.15h.07c0-.07,0-.08.11-.09v0c0,.12-.13.17-.18.25l0,0,0,0,0,0h0s-.06,0-.09.1.06,0,.09,0,0,.07-.09.1h-.17c-.16.09-.21.37-.39.43s0,0-.1,0v-.2h0c0,.14-.36.56-.54.56a1.28,1.28,0,0,1-.11.2c-.08,0-.12,0-.15,0v.11c-.44.18-.58.71-1,.9,0-.08,0-.07-.07-.1s0,0-.1.06v-.08a2.11,2.11,0,0,0,.39-.5l0-.13s.12,0,.15-.07c.13-.2.21-.39.34-.58l.15-.11c.07-.1.12-.37.26-.39a4.39,4.39,0,0,1,.65-.86v-.11h.09a.41.41,0,0,1,.15-.28s.08,0,.11-.06.13-.25.23-.33l.17-.06c.1-.08.15-.28.25-.35l.14,0c.07-.07.06-.22.14-.28h.1c0-.29.84-.9,1.08-1.06s.06-.2.17-.28.26-.07.35-.21l.06,0c.1-.24.37-.29.41-.54h0c0,.07,0,0,.06.06s.39-.29.41-.32-.06-.13.09-.19h0c0,.06,0,0,.05,0s0,0,.06-.09,0,0-.06,0,.08-.1.21-.11,0,0,.13,0v-.07h.11l.09-.1c-.06,0,0,0-.05,0,.13,0,.2,0,.2-.17l0,0a4.78,4.78,0,0,0,.79-.59,1.27,1.27,0,0,0,.68-.41.23.23,0,0,0,.06-.15s0,0-.06-.08v.1a3.59,3.59,0,0,0-.47,0v0l0,0a1.08,1.08,0,0,0-.28.11c-.14.06-.94,0-1.16.05s-.64-.1-.72-.05-.07.08-.1.09-.33-.12-.46-.05a3.24,3.24,0,0,1-1.27.16c0,.06,0,0,0,.06s0,0-.05-.06-.1,0-.15.06,0-.06-.15-.06,0,0,0,0a5.93,5.93,0,0,1-1.25.06c-.09,0-.15-.15-.22-.21s-.09,0-.13-.07,0-.16.06-.24a7.54,7.54,0,0,0,.13-.95.51.51,0,0,1-.1-.34s0,0,0,0a.23.23,0,0,0,.09-.15c-.18-.18-.12-.74,0-.93.33-.12.73.15,1.25,0a2.86,2.86,0,0,1,.34,0,.12.12,0,0,0,.11,0c.26-.07.57,0,.76-.07s.06,0,.13,0c.5-.1,1-.06,1.4-.11a8.58,8.58,0,0,0,1.26-.08l0,0h0c0,.06,0,0,0,.06.09-.13.68,0,.95,0a5.79,5.79,0,0,1,1.62-.07.11.11,0,0,0,0-.08c.13,0,.13,0,.25,0V6.48c0,.08.12.07.23.06s0,0,0-.06.55,0,.84,0l.79,0a12.41,12.41,0,0,0,1.41-.17,3.36,3.36,0,0,1,.71.19l0,.09c-.07.07-.16.51-.23.64.09,0,.09.12.08.26s0,0,0,.07M11.48,6.48l.11.06s0,0,.09,0c.08.17.29.19.3.43a3.45,3.45,0,0,0-.45.56h0s.1,0,.2,0,.05,0,.06.15-.16,0-.19.11a.21.21,0,0,1,.15,0l0,0a.4.4,0,0,0-.13,0c.11,0,.12,0,.13.13a1.49,1.49,0,0,1-.28.11.4.4,0,0,1,.28.34.58.58,0,0,0-.15.19.32.32,0,0,1,.15.31c-.08,0-.17.07-.18.19L11,9.3h-.18c-.07,0-.1.15-.15.18s-.3,0-.38,0l-.16.09-.56.06-.06.07-.35,0c0,.06,0,.07-.11.09s-.28,0-.4-.06a2.26,2.26,0,0,0-1.41,0H6.56l-.43,0-.24-.05-.24,0c-.17-.07-.21-.23-.45-.24a.23.23,0,0,1-.15.06c0-.06-.06,0-.1-.09a2.88,2.88,0,0,1-.46.09.73.73,0,0,1-.06-.36c.11-.13,0-.26,0-.41a7.6,7.6,0,0,0,.13-1.34.34.34,0,0,1-.07-.24c.3-.2-.07-.31.57-.3.21-.1.9.11,1.25,0,.08-.14.4,0,.51,0a3.07,3.07,0,0,1,1.1-.06.26.26,0,0,1,.2-.14c.11-.13.24.07.39,0l0-.08s.3.13.47.08.26.08.39,0A11,11,0,0,0,11,6.54c.2-.09.33,0,.51-.06m5.79,0c-.09.15-.22.19-.24.37s0,0,.07.08c0-.19.13-.17.21-.3s0,0,0-.07,0,0,.05,0l-.05,0m-5.91,1s0,0,.08,0v0Zm4.27.37c0,.08-.08.07-.09.17l.18,0V8s-.05,0-.05-.15Zm-.15.58c0,.12,0,.12-.09.19a.25.25,0,0,1,.13,0V8.61l0,0h0l.09-.06V8.46Zm0,.43c.07,0,0,0,.05,0s-.07.06-.11,0l0,0c.08,0,.05,0,.08,0m.24.24c.07,0,0,0,.06,0h-.06Zm10.84.2c0,.06,0,0,0,.06l0,0Zm-11.44.25,0,0,0,0h0l-.06,0Zm-.39.22v0h0Zm-.5.09h-.09v0l.09,0Zm-1,.49,0,0Zm11.77.44c.05,0,0,0,0,.06Zm-11.23.06c.07,0,0,0,.06.11h-.06l0-.07c.05,0,0,0,0,0m-.3.09c0,.06,0,0,0,.06V11Zm-.5.37h-.09v.08h.15c0-.13.14-.18.18-.34L13.19,11a.36.36,0,0,1-.17.15Zm-.34.73v.11c-.17,0-.16.21-.34.26v-.07c.12-.08.13-.28.35-.3m.08.06.06,0Zm-.54.35c.07,0,0,0,.06.06h0Zm-.13.13c.07,0,0,0,.06.08h-.06Zm-.28.06h0v.05c-.07,0-.06,0-.11.06v-.06s0,0,.07-.05m12.07,1.62,0,0Zm-.15.09.08,0s0,0,.05,0v.06l0,0c-.05,0-.1,0-.11,0s0,0,0-.09,0,0,0,0m-13.45.15,0,.06Zm12.43.28.05,0Zm-.26.11c0,.07,0,0,.05.06v-.06Zm-16.3.54h0ZM8.1,16.82h.08v-.09H8.1ZM6.73,18.27h.11a.29.29,0,0,0,0-.1v-.24c.09-.06.12-.17.23-.2a.66.66,0,0,1,0,.11c-.11,0-.15.13-.23.2.07,0,.09.07.09.19s-.19.06-.2.2l-.11,0Zm.68-.44s0,0,0,0l-.09.08-.06,0a.17.17,0,0,0,.11-.09m-.83.39c.06,0,0,0,0,.07l0,0c0-.08,0,0,0-.09M6,18.61h.15v0H6Zm.58.15v0l-.09,0v0Zm-.53.45c.07,0,0,0,.06.05h0Zm-1.54.11c0,.06,0,0,0,.05v-.05Zm.82,0a.23.23,0,0,0,0,.11l.06,0,0,0,0-.09Zm.11.07h0v0h0Zm-1,0v0l0,0Zm.06,0v0h0Zm.46.28c0,.07,0,0,.09.05v0Zm-.37.67v0l0,0Zm0,.28,0,.05Zm10.64,1s0,0,0,0h0Zm.09.12a.23.23,0,0,1,.2.12h0l-.08,0Zm-12,0c.07,0,0,0,.06.06H3.35Zm5.44.3h0v0h0Zm-6.39.45v.09h0l0-.09Zm6.69.05,0,0,0,0Zm5.77,0c0,.05,0,0,0,.06s0,0,0-.06Zm-.18.19h0v0h0Zm-.06,0,0,0Zm-12.22,0s0,0,.06.09l0,0,0,0v-.09Zm12.67.59,0,.12-.07,0v-.1c.05,0,0,0,.05-.06m.3.1h.09l0,0s0,0-.05,0Zm-.75.15h0v0h0Zm.64.18,0,.06h-.06v0Zm.61,0h0l0,0Zm-.43.06h0V24h-.06Zm.08,0,0,0Zm-1,.24a.24.24,0,0,1,.06.08h0Zm.82,0h0v0h0Zm-1.1,0a1,1,0,0,1-.05.2l.05.06a.87.87,0,0,0,.08-.1c-.05,0,0,0,0-.07a.22.22,0,0,0,.06-.07Zm1,.05s0,0,0,0Zm-.26.17c0,.06-.07,0-.1.13h0c0-.05.11,0,.15-.09l0,0Zm2.79,3.82h0Z" style="fill:#fff"/><path d="M41.16,35.4V30.87a1.71,1.71,0,0,0-.64-1.38,2.33,2.33,0,0,0-1.6-.42h-2.6l-.12.85h.45s0,.3,0,.73v3.29c0,.77-.38.92-.85.77l-.22.69a2,2,0,0,0,.69.1c.9,0,1.41-.38,1.41-1.68V30.66c0-.41,0-.74,0-.74h1.23a1.67,1.67,0,0,1,.7.14.87.87,0,0,1,.51.79V35.4Z" style="fill:#fff"/><path d="M43.15,31.94v-1.5A3.09,3.09,0,0,0,42.91,29l-1,.36a2.29,2.29,0,0,1,.17,1.11v1.81Z" style="fill:#fff"/><polygon points="48.69 29.92 48.69 29.06 44.05 29.06 43.97 29.92 44.64 29.92 46.44 29.89 46.44 35.38 47.48 35.38 47.48 29.89 48.69 29.92" style="fill:#fff"/><path d="M50.5,35.38V30.5A3.17,3.17,0,0,0,50.25,29l-1,.36a2.35,2.35,0,0,1,.17,1.17v4.9Z" style="fill:#fff"/><path d="M52.61,35.38V33a2.66,2.66,0,0,0-.28-1.55l-1,.35a2.1,2.1,0,0,1,.2,1.17v2.41Zm3.53,0V30.93a1.77,1.77,0,0,0-.83-1.56,2.28,2.28,0,0,0-1.37-.31H51.48l-.11.86h2.38c.83,0,1.34.23,1.34,1.15v4.31Z" style="fill:#fff"/><path d="M58.41,31.94v-1.5A3,3,0,0,0,58.17,29l-1,.36a2.29,2.29,0,0,1,.17,1.11v1.81Z" style="fill:#fff"/><path d="M40.92,17.12a3.68,3.68,0,0,0-.57-2.2,2.32,2.32,0,0,0-2-1.06,2.53,2.53,0,0,0-1,.15l.23.8a1.34,1.34,0,0,1,.67-.14c1.38,0,1.45,1.47,1.45,2.51,0,1.94-.65,2.4-1.43,2.4A1.19,1.19,0,0,1,37.18,19c-.51-.88-.38-2.68-.37-3.58a2.82,2.82,0,0,0-.27-1.55l-.95.35a2.09,2.09,0,0,1,.21,1.2c0,1.34-.28,3.09.7,4.21a2.28,2.28,0,0,0,1.82.78A2.35,2.35,0,0,0,40,19.79a3.4,3.4,0,0,0,1-2.67" style="fill:#fff"/><polygon points="46.06 14.81 46.06 13.95 41.42 13.95 41.34 14.81 42.01 14.81 43.81 14.77 43.81 20.27 44.85 20.27 44.85 14.77 46.06 14.81" style="fill:#fff"/><path d="M47.75,20.27V15.39a3.29,3.29,0,0,0-.24-1.55l-1,.35a2.5,2.5,0,0,1,.17,1.17v4.91Z" style="fill:#fff"/><path d="M52.56,20.28V15.81a1.79,1.79,0,0,0-.82-1.56A2.27,2.27,0,0,0,50.37,14h-2l-.06.85h1.9c.81,0,1.34.23,1.34,1.15v4.32Z" style="fill:#fff"/><path d="M58.06,19.38H58c-.74,0-.94.15-.85,0a4,4,0,0,0,.65-2.29A3.6,3.6,0,0,0,57.21,15a2.29,2.29,0,0,0-2-1H53.4l-.11.86h1.78c1.44,0,1.5,1.29,1.5,2.37a3.33,3.33,0,0,1-.41,1.94,1.54,1.54,0,0,1-.36.25H53.35v.9h4.54Z" style="fill:#fff"/><path d="M38.74,7.25V6.39h-3l-.12.86s1.09-.07,1,0a1.15,1.15,0,0,0-.28,1.09l.52,4.38h1l-.52-4.56a.78.78,0,0,1,.42-.83,2.75,2.75,0,0,1,1-.08" style="fill:#fff"/><path d="M44,9.57a3.84,3.84,0,0,0-.55-2.17,2.26,2.26,0,0,0-2-1H39.58l-.11.86h1.89A1.25,1.25,0,0,1,42.57,8a4.43,4.43,0,0,1,.26,1.72c0,1-.2,2.14-1.47,2.14H39.62l-.14.89h2a2.28,2.28,0,0,0,2-1A3.66,3.66,0,0,0,44,9.57" style="fill:#fff"/><path d="M48.54,12.73V8.26a1.82,1.82,0,0,0-.82-1.56,2.31,2.31,0,0,0-1.37-.29h-2l-.06.84h1.9c.82,0,1.35.23,1.35,1.16v4.32Z" style="fill:#fff"/><path d="M54.67,9.49A3.62,3.62,0,0,0,53.8,7,2.66,2.66,0,0,0,52,6.31a2.55,2.55,0,0,0-1.56.52,1.92,1.92,0,0,0-.22-.54l-1,.36a2,2,0,0,1,.22,1.16v4.92h1V7.78A2.33,2.33,0,0,1,52,7.12c1.28,0,1.45,1.48,1.45,2.52S53.37,12,52,12a1.28,1.28,0,0,1-.77-.21l-.28.78a2.28,2.28,0,0,0,1.09.21c1.83,0,2.59-1.47,2.59-3.33" style="fill:#fff"/><path d="M41.16,27.84V23.31a1.73,1.73,0,0,0-.64-1.38,2.39,2.39,0,0,0-1.6-.41h-2.6l-.12.85h.45s0,.3,0,.73v3.29c0,.76-.38.92-.85.76l-.22.69a1.94,1.94,0,0,0,.69.11c.9,0,1.41-.39,1.41-1.68V23.11c0-.41,0-.74,0-.74h1.23a1.86,1.86,0,0,1,.7.13.88.88,0,0,1,.51.8v4.54Z" style="fill:#fff"/><path d="M43.26,27.83V23A3.31,3.31,0,0,0,43,21.4l-1,.35a2.42,2.42,0,0,1,.17,1.18v4.9Z" style="fill:#fff"/><path d="M48.78,27h-.09c-.74,0-.94.14-.85,0a4,4,0,0,0,.65-2.29,3.55,3.55,0,0,0-.56-2.16,2.29,2.29,0,0,0-2-1H44.12l-.12.86h1.79c1.44,0,1.5,1.3,1.5,2.37a3.29,3.29,0,0,1-.41,1.94,1.77,1.77,0,0,1-.35.26H44.07v.89h4.54Z" style="fill:#fff"/><path d="M52.83,27.84V23.37A1.83,1.83,0,0,0,52,21.81a2.29,2.29,0,0,0-1.37-.29h-2l-.07.85h1.91c.81,0,1.34.23,1.34,1.15v4.32Z" style="fill:#fff"/><path d="M58.89,27.84V23.31a1.73,1.73,0,0,0-.65-1.38,2.36,2.36,0,0,0-1.59-.41H54l-.12.85h.45s0,.3,0,.73v3.29c0,.76-.37.92-.85.76l-.21.69A1.89,1.89,0,0,0,54,28c.89,0,1.4-.39,1.4-1.68V23.11c0-.41,0-.74,0-.74h1.23a1.91,1.91,0,0,1,.71.13.87.87,0,0,1,.5.8v4.54Z" style="fill:#fff"/><path d="M63.67,24.74c.11-1,.24-1.92-.23-2.53a2.3,2.3,0,0,0-1.93-.7H60.32v-.28A2.8,2.8,0,0,0,60,19.67l-.85.36a2.37,2.37,0,0,1,.19,1.19v1.15h2.07c1,0,1.16.28,1.27.68a6.3,6.3,0,0,1-.07,1.78c-.13,1.16-.44,2.28-1.78,2.28l-.15.83a2.44,2.44,0,0,0,1.76-.62,3.64,3.64,0,0,0,1.19-2.58" style="fill:#fff"/></svg>