<svg xmlns="http://www.w3.org/2000/svg" viewBox="0 0 66.3 67"><defs><style>.a{fill:#6d6e71;}</style></defs><title>Artboard 29 copy 3</title><path class="a" d="M25.1,18.13l4.74,6.12.06.09a2.81,2.81,0,0,1,.54,2.2,2.85,2.85,0,0,1-.39,1.13l-.05.08a2.66,2.66,0,0,1-.77.79l-.07.07-2.3,1.67a2,2,0,0,0,.31,2,28.48,28.48,0,0,0,3.4,4.06h0a28.86,28.86,0,0,0,4.06,3.4,2,2,0,0,0,2,.32l1.73-2.37h0a3.27,3.27,0,0,1,.89-.83,3.06,3.06,0,0,1,1.14-.4h0a3.28,3.28,0,0,1,1.17.07l.07,0a3,3,0,0,1,1,.53l6.12,4.74.09.1a2.79,2.79,0,0,1,.74.91h0A3.12,3.12,0,0,1,49.9,44a3,3,0,0,1-.21,1.27h0a2.87,2.87,0,0,1-.75,1.06,8.09,8.09,0,0,1-1.46,1.1l-.07,0a10.69,10.69,0,0,1-2,.91A16.49,16.49,0,0,1,35,48.2a26.14,26.14,0,0,1-10-6.36,26.21,26.21,0,0,1-6.35-10,16.41,16.41,0,0,1-.23-10.38,10.66,10.66,0,0,1,.93-2.07h0a9.42,9.42,0,0,1,1.11-1.46,2.88,2.88,0,0,1,1.07-.75l.1,0A3.32,3.32,0,0,1,22.85,17a2.88,2.88,0,0,1,1.25.33l.07,0,.93.79Zm2.79,7.63h0l-4.75-6.11h0a.33.33,0,0,0-.14-.13l0,0a.58.58,0,0,0-.24,0,.46.46,0,0,0-.19,0h0a1,1,0,0,0-.19.15,6.09,6.09,0,0,0-.79,1.05,7.73,7.73,0,0,0-.71,1.55A13.87,13.87,0,0,0,21,31.06a23.56,23.56,0,0,0,5.76,9,23.49,23.49,0,0,0,9,5.76,14.09,14.09,0,0,0,8.85.25,9,9,0,0,0,1.51-.69l0,0a5.37,5.37,0,0,0,1.07-.8.42.42,0,0,0,.12-.18h0v0a.34.34,0,0,0,0-.23.49.49,0,0,0-.05-.23h0a.65.65,0,0,0-.11-.13l-.05-.05L41.13,39h0c-.06,0-.12-.06-.18-.1h0a.56.56,0,0,0-.21,0h0a.6.6,0,0,0-.21.09v0a.33.33,0,0,0-.16.14v0l-1.86,2.57a1.35,1.35,0,0,1-.4.37,4.22,4.22,0,0,1-4.85-.3,31.5,31.5,0,0,1-4.41-3.67h0a33.52,33.52,0,0,1-3.68-4.39,4.28,4.28,0,0,1-.3-4.85,1.31,1.31,0,0,1,.33-.36l2.53-1.85.08-.07a.35.35,0,0,0,.13-.12l0,0a.68.68,0,0,0,.05-.21A.47.47,0,0,0,28,26a.62.62,0,0,0-.06-.14l0-.05ZM25.1,18.14Zm0,0Z"/></svg>