<svg xmlns="http://www.w3.org/2000/svg" viewBox="680 1716.089 46.089 43.177"> <defs> <style> .cls-1 { fill: #6d6e71; } </style> </defs> <path id="Path_482" data-name="Path 482" class="cls-1" d="M14.619,34.584A.959.959,0,0,0,13.6,35.6v2.03a1.015,1.015,0,1,0,2.03,0V35.6a.959.959,0,0,0-1.015-1.015Zm6.7-10.964h-6.7A.959.959,0,0,0,13.6,24.635v6.7a.959.959,0,0,0,1.015,1.015h6.7a.959.959,0,0,0,1.015-1.015v-6.7c.2-.406-.406-1.015-1.015-1.015Zm-1.015,6.9h-4.67v-4.67H20.3v4.67Zm.2,4.061h0A.959.959,0,0,0,19.492,35.6v2.03a1.015,1.015,0,1,0,2.03,0V35.6a.959.959,0,0,0-1.015-1.015Zm-3.046,0h0A.959.959,0,0,0,16.446,35.6v2.03a1.015,1.015,0,1,0,2.03,0V35.6c.2-.609-.406-1.015-1.015-1.015Zm17.258,0h0A.959.959,0,0,0,33.7,35.6v2.03a1.015,1.015,0,1,0,2.03,0V35.6a1.088,1.088,0,0,0-1.015-1.015Zm2.843,0h0A.959.959,0,0,0,36.547,35.6v2.03a1.015,1.015,0,1,0,2.03,0V35.6a.959.959,0,0,0-1.015-1.015Zm3.046,0h0A.959.959,0,0,0,39.592,35.6v2.03a1.015,1.015,0,1,0,2.03,0V35.6a1.088,1.088,0,0,0-1.015-1.015ZM44.871,15.9h0a3.274,3.274,0,0,0-2.639-1.218H40L32.689,2.1c0-.2-.2-.2-.2-.406A4.054,4.054,0,0,0,30.456.068a3.96,3.96,0,0,0-2.639.2c-.2,0-.2,0-.2.2L1.827,15.5h0A3.779,3.779,0,0,0,0,17.732H0a4.533,4.533,0,0,0,.609,2.843L8.731,34.787v4.467a4.276,4.276,0,0,0,1.015,2.639,3.274,3.274,0,0,0,2.639,1.218H42.435a3.574,3.574,0,0,0,2.639-1.218,3.86,3.86,0,0,0,1.015-2.639V18.544A5.315,5.315,0,0,0,44.871,15.9ZM8.731,18.544h0v9.137L3.655,18.747v-.2h0L29.643,3.519h0a.2.2,0,0,1,.2.2h0l6.294,10.964H12.385a3.817,3.817,0,0,0-3.655,3.858Zm33.7,20.71h0l-30.049.2V18.544H42.435v20.71Zm-11.979-4.67h0A.959.959,0,0,0,29.44,35.6v2.03a1.015,1.015,0,1,0,2.03,0V35.6a.959.959,0,0,0-1.015-1.015Zm-2.843,0h0A.959.959,0,0,0,26.6,35.6v2.03a1.015,1.015,0,1,0,2.03,0V35.6a.959.959,0,0,0-1.015-1.015Zm-3.046,0h0A.959.959,0,0,0,23.552,35.6v2.03a1.015,1.015,0,1,0,2.03,0V35.6a.959.959,0,0,0-1.015-1.015Z" transform="translate(680 1716.154)"/> </svg>