<svg xmlns="http://www.w3.org/2000/svg" viewBox="0 0 85.23 104.38"><defs><style>.a{fill:#6d6e71;}</style></defs><title>Asset 6</title><path class="a" d="M39.27,54.12.93,6.81A4.16,4.16,0,0,1,1.59.93,3.91,3.91,0,0,1,4.18,0H81a4.19,4.19,0,0,1,4.24,4.18,3.94,3.94,0,0,1-1.17,2.87L45.84,54.15a2.76,2.76,0,0,1-.72.72V95.93H67.36a4.23,4.23,0,0,1,0,8.45H17.84a4.23,4.23,0,0,1,0-8.45H40.07V54.87L40,54.78c-.24-.21-.48-.45-.69-.66Zm-21-39.24H66.91L72.2,8.4H13l5.29,6.48ZM62.79,20H22.44L42.58,44.85,62.79,20ZM47.42,23.67h0a4.75,4.75,0,1,0,4.69,4.75,4.75,4.75,0,0,0-4.69-4.75Z"/></svg>