<svg xmlns="http://www.w3.org/2000/svg" xmlns:xlink="http://www.w3.org/1999/xlink" viewBox="0 0 223.06 374.51"><defs><symbol id="a" viewBox="0 0 223.06 374.51"><path d="M165.36,331c-14.06-14.05-36.53-11.14-48.85-10.49C88.72,322,76.64,304,76.64,304s-18.15,29.48-4.1,43.53,34.68,11.33,46.41,11.33c27.57,0,42.3,15.65,42.3,15.65S179.41,345,165.36,331Z" style="fill:#89d4e5"/><path d="M147,42.85l7.58-5.68,1.54-5.57-2.61-7.25-5.28-2.53c.19-1.42-3-3.73-3.79-2.58L141.22,19l1.52,17.54Z" style="fill:#61c4e2"/><path d="M75,36.52,67.2,42.85l-.5,46.7,5.77,26.21,12,22.82,40.2-10h18.67s8.1-10.11,8.61-11.44S157.23,89,157.23,89l-2-16.09-4.48-30.08-9.54-7.93Z" style="fill:#d1eefc"/><path d="M150.83,41.46c-5.2-4.38-7.33-8.57-6.67-15.71.14-1.51-.06-7.65-.72-6.32l-2.6.31-4.56,14.17,6.81,10.85,2.33,5.64-.2-4.47Z" style="fill:#89d4e5"/><path d="M67.87,40.46l-.67,2.39-4.43,5.67-1.11,6.53,4.71,31.71.33,2.91s3.37-3.68,3.87-4.29S72,73.6,72,73.6L71,55.05,68.86,44.67Z" style="fill:#0c9ecc"/><polygon points="154.55 37.17 159.46 38.09 162.35 45.97 161.54 61.76 158.66 72.93 156.74 48.52 151.9 40.07 154.55 37.17" style="fill:#0c9ecc"/><polygon points="146.97 44.69 143.29 47.23 146.31 53.99 156.74 88.49 158.66 79.11 156.74 54.93 153.93 43.88 150.33 41.79 146.97 44.69" style="fill:#61c4e2"/><path d="M167.88,172.27v20.85l-14,22.59-19.3,18L112,255.31,145,209l11.75-20.63V172.12l-1.56-11.85c-5.41-27.39,4.09-14.91,7.4-15.82Z" style="fill:#29ade4"/><path d="M157.23,116.52l5.89,30.83a29.19,29.19,0,0,1-9.64.14v-.06l-6.89-27,10.65-30.84Z" style="fill:#29ade4"/><polyline points="153.48 147.49 156.73 172.12 156.73 188.41 144.98 209.03 111.96 255.31 136.74 207 146.97 186.09 146.97 171.44 145.44 143.73" style="fill:#0c9ecc"/><path d="M153.47,147.43v.06a39.18,39.18,0,0,1-7.95-2.05l-1.32-23.72,2.37-1.32Z" style="fill:#0c9ecc"/><path d="M147,169.19V186.1L136.74,207,112,255.31l23-71.69V168.1l1.79-43.92c3.45,1,4.86-.45,7.46-2.46Z" style="fill:#89d4e5"/><path d="M73.62,6.55,141.22,19s-9.43,8.2,3.71,28.25a.39.39,0,0,1,.07.23.41.41,0,0,1-.6.36C139.19,45,121.53,36.21,112,38.94c-11.3,3.23-31.72,4.86-41.61,1.87-14.3-4.33-11.74-36-.94-40.05Z" style="fill:#89d4e5"/><polyline points="121.02 128.88 120.61 128.1 122.36 127.19 136.75 123.16" style="fill:#0c9ecc"/><path d="M136.73,124.65l-1.37,33.83-.4,25.14-23,71.69,8-67.46.57-31.65L120,129.71C128.68,122.6,134.35,126,136.73,124.65Z" style="fill:#61c4e2"/><path d="M124.62,128.54l-4.1,27.66h0L112,161.36l-9.71-5.87h0c.54-1.79-8.76,1.49-8.56.9,2.29-1.13,7.18-30.24,10.9-28.78,5.29,2.05,6.34,5.28,6.34,5.28S119,128,124.62,128.54Z" style="fill:#29ade4"/><path d="M120.52,156.2,120,187.85l-8,67.46-7-13.75c-2-4.32-1.62-4-1.16-5.13,3.39-8.51-3.43-30.56-5.88-46.35-1.83-11.73,2.17-27.35,4.35-34.6h0l9.71,5.87,8.55-5.16Z" style="fill:#29ade4"/><path d="M103,237.24l9,18.07-10.07-14.06C100.35,239.2,102.34,237.77,103,237.24Z" style="fill:#0c9ecc"/><path d="M101.39,239.66l10.51,14.69-9.85-8.54-3.64-2.4C99,242.74,100.94,241.32,101.39,239.66Z" style="fill:#61c4e2"/><path d="M85.65,203.87l5.62,6.88S89,193.66,89,191.08c0-2,.14-4.5.44-7.41.89-8.64,3.2-20.45,7.51-29,2.4-1,2-1.94,3.92-2.89-.2.59,2,1.87,1.41,3.66-2.18,7.25-6.18,22.87-4.35,34.6,2.45,15.79,8.23,39.31,4.84,47.82a27.35,27.35,0,0,1-1.8,3.66,21.9,21.9,0,0,1-1.32,2c-.51.71-1.56.15-2.18.82-9,9.83-15.68,6-21.34,2.4a28.54,28.54,0,0,1-6.74-6.09L55.93,224.28s20-1,27.85-22.71l1.87,2.29Z" style="fill:#0c9ecc"/><path d="M104,127.19l.59.41a87.51,87.51,0,0,1-16.69,13.13l-.69-17.36,8.1,2.44A56.72,56.72,0,0,0,104,127.19Z" style="fill:#0c9ecc"/><path d="M91.27,210.75l-5.62-6.88h0L84,200.41,77,186.1V171.44l1.51-27c3.82-.38,6-2.74,9.41-3.68L89,168.1v15.52l.42,0c-.3,2.91-.44,5.46-.44,7.41C89,193.66,91.27,210.75,91.27,210.75Z" style="fill:#61c4e2"/><path d="M105,126.67c-4.31,8.51-14.71,48.36-15.6,57l-.42,0L88.69,161l-1-25.82C87.78,144.78,101.23,128.84,105,126.67Z" style="fill:#0c9ecc"/><path d="M87.19,123.37l.69,17.36a59,59,0,0,1-9.47,4.63l1.31-23.64-2.37-1.32Z" style="fill:#61c4e2"/><path d="M76,203.76a62.16,62.16,0,0,1,8-3.32l.06,0,1.69,3.45-1.87-2.29c-7.84,21.68-27.85,22.71-27.85,22.71l-.65-.3s2.59-7.08,11.16-14.07A51.43,51.43,0,0,1,76,203.76Z" style="fill:#0c9ecc"/><path d="M77,186.1l7,14.31-.06,0a62.16,62.16,0,0,0-8,3.32L67.2,188.41V172.12l3.47-25.51a9,9,0,0,0,7.86-3.32L77,168.89Z" style="fill:#29ade4"/><path d="M79.72,121.72l-1.31,23.64a40.2,40.2,0,0,1-8,2.14v-.07l6.89-27Z" style="fill:#29ade4"/><path d="M66.7,89.56,77.35,120.4l-6.89,27v.07a28.47,28.47,0,0,1-9,0l0-.11,5.21-30.91Z" style="fill:#0c9ecc"/><path d="M67.2,188.41,76,203.76a51.43,51.43,0,0,0-9.51,6.15L56.05,193.12V172.27l3.39-14.07c1,.28,2.87-13.37,5-18.4,4.36-10.35,9.92-16.57,12-16.43L67.2,172.12Z" style="fill:#0c9ecc"/><path d="M81.12,12.07H98l3.4,4.21.83,10.9,5.67,10.91V40l-13,2.59s-5.06.86-5.1-.29-4.86-15.2-5.2-15.07,0-12.34,0-12.34Z" style="fill:#61c4e2"/><path d="M63.58,13.18H80.47l3.39,4.21L84.7,30l5.66,9.11V41l-13,2.6s-5.06.86-5.1-.29S67.36,29.89,67,30,67,16,67,16Z" style="fill:#89d4e5"/><path d="M96.92,11.27h16.9l3.39,4.21.83,10.9,5.67,11v1.86l-12.64.72s-5.46,2.73-5.49,1.58-4.87-15.26-5.2-15.13,0-12.34,0-12.34Z" style="fill:#0c9ecc"/><polygon points="111.97 133.29 104.26 188.85 112.54 256.31 107.43 236.43 98.14 191.64 104.64 129.65 111.97 133.29" style="fill:#84d3e8"/><path d="M91.16,209c-.2,6.75.87,16.82-4.88,16.82-2.9,0-11-11.31-11-11.31l-5.69,6.74S80,235.47,80.38,235.72s10.28,4.5,11.53,3.38,5.87-4,6.12-6.38,0-15.87,0-15.87S94.28,201,94.28,200.44,90,182.37,90,182.37l-.76,12.37Z" style="fill:#29ade4"/><path d="M99.78,153.38A100.58,100.58,0,0,0,95,169.2C92,184,94.53,198.37,99.09,212.56a50,50,0,0,1,2.13,15.6c-.06,5.26-1.94,12-7.06,14.69-9,4.79-18.25-5.25-18.25-5.25L63.54,222.5l6.62-3.29s10.62,16.14,16.62,16,11.13-4.37,9.5-18.87c-.65-5.78-9.55-34-5.12-45.38Z" style="fill:#61c4e2"/><path d="M79.17,210.54s3.61,5.93,5.36,5.81,4.56-8.28,4.56-8.28" style="fill:none"/><path d="M67.91,213.71A107.75,107.75,0,0,1,78,207a53.56,53.56,0,0,1-8.57,8.78,42.63,42.63,0,0,1-9.06,5.3A44,44,0,0,1,67.91,213.71Z" style="fill:#89d4e5"/><path d="M80.64,42.25c-18.78-14.46-7-35.7-7-35.7l-5-4.11S55,27.72,73.8,42.25Z" style="fill:#61c4e2"/><path d="M96.67,41.25C77.9,27,87.77,11.12,87.77,11.12L78.41,8.71s-9.07,19,9.71,33.54Z" style="fill:#0c9ecc"/><path d="M113.4,38.94c-18.78-13.06-8.9-27.47-8.9-27.47l-8.37-.73s-8.65,15.32,10.13,29.72Z" style="fill:#29ade4"/><path d="M144.93,47.23c-9.56-12.07-3.8-22.38-1.49-27.8a1.39,1.39,0,0,0-1.05-2L136.54,17a1.24,1.24,0,0,0-1.08.5C133,20.74,121.09,32.1,138,45.08Z" style="fill:#29ade4"/><path d="M131.42,41.79c-19.56-13.37-12.08-29.38-12.08-29.38l-6.89-.67s-9.87,14.25,8.91,27.2Z" style="fill:#61c4e2"/><path d="M137.07,44.32c-8.85-21.49-.16-27.36-.16-27.36l-10.49-4.27c-11,18.21,7.18,29.86,7.18,29.86Z" style="fill:#0c9ecc"/><path d="M157.41,85.43c1-42.49-6.65-42.58-6.65-42.58l2.31-4.76s9.37-.93,5.41,43.05" style="fill:#89d4e5"/><path d="M67.2,86.1a170.39,170.39,0,0,1-.41-41.34l-2.48.49-1.54,4.18-.56,2.36-.55,3.26,1.48,10.68Z" style="fill:#61c4e2"/><path d="M69.05,85.38c-.85-8.89,0-31.62,0-31.62l1.61-.4.75,9.41V76.1Z" style="fill:#89d4e5"/><path d="M55.94,224.28s17.27,26.4,30.18,26.8" style="fill:none"/><path d="M147,44.69l-2.56,3.13,6.35,23.78,6,15.16C153.23,46.65,147,44.69,147,44.69" style="fill:#89d4e5"/><path d="M39,175.69c.68-2,1.87-3.76.52-5.39a3.82,3.82,0,0,0-5.39-.53l-.16.11a22.43,22.43,0,0,0,24.45,37.26S31.12,198.76,39,175.69Z" style="fill:#61c4e2"/><path d="M16.77,146.26a11.06,11.06,0,0,0,12.83,18l.17-.15a3.68,3.68,0,0,0,.51-5.18c-1.29-1.57-3.17-.83-5.18-.51-11.73,1.9-8.55-12-8.55-12A11.06,11.06,0,0,0,2.88,129l-.17.15a3.69,3.69,0,0,0,4.94,5.47s8.59-3.39,9.76,9.91" style="fill:#89d4e5"/><path d="M25.1,158.43S39.59,156.8,39,175.69c0,0,2.94-4.29,3.14-4.72s1-5.45,1-5.45L40.69,160l-4-3.53-5.54-.5-3.84.87Z" style="fill:#29ade4"/><path d="M82.63,343a.75.75,0,0,1-.19-.58.76.76,0,0,1,.25-.59.74.74,0,0,1,1,0,.82.82,0,0,1,.18.62.77.77,0,0,1-.25.55.72.72,0,0,1-1-.05Zm.86-12.5.06-1.27.66,0-.07,1.27-.56,8.95-.49,0Z"/><path d="M89.25,337.35l.17-1.37.56,0-.61,11.39-.66,0Zm2.5,5.45a6.82,6.82,0,0,0,2-.46,3.42,3.42,0,0,0,1.49-1.41,7.66,7.66,0,0,0,.91-3.06l.66-4.78-7.53-.4,0-.62,8.22.44-.07.62-.67,4.78a6.31,6.31,0,0,1-1.72,4.21,5,5,0,0,1-3.3,1.3Z"/><path d="M102.37,335.18l-.16-2.42.66,0,.16,2.41-.16,3-.09,1.29-.65.17Z"/><path d="M107.94,343.67l2.83.15a4.5,4.5,0,0,0,3.1-.81c.8-.61,1.24-1.75,1.33-3.42l.06-1.08a5.58,5.58,0,0,0-.64-3.38,2.93,2.93,0,0,0-2.43-1.21l-2.59-.14-.77,2.59a5.81,5.81,0,0,0-.26,1.36,1.81,1.81,0,0,0,.36,1.31,2.59,2.59,0,0,0,1.4.72l-.27.59a3,3,0,0,1-1.68-.93,2.44,2.44,0,0,1-.45-1.72,7.33,7.33,0,0,1,.24-1.37l.93-3.2,3.12.17a3.59,3.59,0,0,1,2.85,1.39,5.91,5.91,0,0,1,.85,3.81l-.06,1.13c-.19,3.38-1.89,5-5.12,4.81l-2.83-.16Z"/><path d="M119.29,344.59a2.38,2.38,0,0,0,1.84-.68,2.93,2.93,0,0,0,.63-1.91l.44-8.16,4.24.23a3.38,3.38,0,0,1,2.46,1,4,4,0,0,1,.72,3l-.39,7.39-.66,0L129,338a3.39,3.39,0,0,0-.6-2.48,2.76,2.76,0,0,0-2-.85l-3.55-.19-.4,7.53a3.53,3.53,0,0,1-.82,2.28,3.13,3.13,0,0,1-2.23.85Z"/><path d="M146.86,339a3.39,3.39,0,0,0-.6-2.48,2.74,2.74,0,0,0-2-.85l-3.8-.2,0-.62,3.83.21a3.42,3.42,0,0,1,2.46,1,4.08,4.08,0,0,1,.73,3l-.62,11.49-.66,0Z"/><path d="M159.56,335.85l0,.61-4.72,10.35-.65,0,4.71-10.34-6.67-.36.22-4.15.66,0-.19,3.53Z"/><path d="M14.6,272.49H4.27V263h31v9.5H24.92v33.36H14.6Z"/><path d="M59.07,304.57a14.52,14.52,0,0,1-5.4-6,20.11,20.11,0,0,1-2-9.23,18.58,18.58,0,0,1,2.19-9.2,15.23,15.23,0,0,1,5.88-6,16.17,16.17,0,0,1,8-2.08,12.53,12.53,0,0,1,8.76,3.43l-4.8,7.26a5.11,5.11,0,0,0-3.36-1.59,5.27,5.27,0,0,0-4.5,2.21,9.9,9.9,0,0,0-1.62,6,9.69,9.69,0,0,0,1.65,5.93A4.92,4.92,0,0,0,68,297.54a7.84,7.84,0,0,0,4.8-2.1l4,7.38a12.46,12.46,0,0,1-4.71,2.93,16,16,0,0,1-5.25.89A14.71,14.71,0,0,1,59.07,304.57Z"/><path d="M78.48,260H88.57v24.4h.24l8.28-11.48h11.16L97.57,286.6l11.28,19.25H97.69l-6-11.73-3.12,3.82v7.91H78.48Z"/><path d="M112.37,304.57a14.52,14.52,0,0,1-5.4-6,20.11,20.11,0,0,1-2-9.23,18.58,18.58,0,0,1,2.19-9.2,15.18,15.18,0,0,1,5.89-6,16.11,16.11,0,0,1,8-2.08,12.53,12.53,0,0,1,8.76,3.43l-4.8,7.26a5.11,5.11,0,0,0-3.36-1.59,5.27,5.27,0,0,0-4.5,2.21,9.9,9.9,0,0,0-1.62,6,9.76,9.76,0,0,0,1.65,5.93,4.92,4.92,0,0,0,4.11,2.24,7.84,7.84,0,0,0,4.8-2.1l4,7.38a12.46,12.46,0,0,1-4.71,2.93,16,16,0,0,1-5.25.89A14.71,14.71,0,0,1,112.37,304.57Z"/><path d="M131.78,260h10.33v10.68l-.48,5.67a19.27,19.27,0,0,1,4.08-3,10.06,10.06,0,0,1,4.92-1.19q4.8,0,7.08,3.53t2.28,9.92v20.31H149.67V287a8.67,8.67,0,0,0-.69-4.16,2.49,2.49,0,0,0-2.31-1.12,4.48,4.48,0,0,0-2.28.56,11,11,0,0,0-2.28,2v21.62H131.78Z"/><path d="M166.65,305.26a8.94,8.94,0,0,1-3.16-3.69,11.83,11.83,0,0,1-1.08-5.08,9.54,9.54,0,0,1,3.88-8.11q3.87-2.89,12.45-3.89a3.66,3.66,0,0,0-1.2-2.61,4.75,4.75,0,0,0-3-.82,9.8,9.8,0,0,0-3.36.66,24.88,24.88,0,0,0-4.2,2.11l-3.61-7.39a23.9,23.9,0,0,1,13.21-4.35q12.48,0,12.48,15.43v18.33h-8.4l-.72-3.16h-.24q-4,4-8.28,3.95A8.4,8.4,0,0,1,166.65,305.26ZM177,297.38a9.54,9.54,0,0,0,1.77-1.68v-4.49q-6.48,1.07-6.48,4.36a2.16,2.16,0,0,0,.72,1.74,3,3,0,0,0,2,.63A3.37,3.37,0,0,0,177,297.38Z"/><path d="M192.69,260h10.08v24.4H203l8.28-11.48h11.17L211.77,286.6l11.29,19.25H211.89l-6-11.73-3.12,3.82v7.91H192.69Z"/><path d="M105,146.49s-9.56,28.45-7.11,44.24,8.24,37.31,4.84,45.82c-3.16,7.91-11.45,18.76-26.63,10.91a22.53,22.53,0,0,1-6.75-6.09l-13.4-16.44s20-1,27.85-22.71l7.48,9.18S89,194.31,89,191.73c0-7.78,5.37-31.76,11.23-43.12" style="fill:none;stroke:#231f20;stroke-miterlimit:10;stroke-width:3px"/><polyline points="162.35 140.72 167.88 172.91 167.88 193.77 153.91 216.36 134.6 234.38 111.97 255.96 99.05 243.46" style="fill:none;stroke:#231f20;stroke-miterlimit:10;stroke-width:3px"/><path d="M58.33,161" style="fill:none;stroke:#231f20;stroke-miterlimit:10;stroke-width:3px"/><polyline points="65.9 209.69 56.05 193.77 56.05 172.91 62.32 140.72" style="fill:none;stroke:#231f20;stroke-miterlimit:10;stroke-width:3px"/><path d="M144.93,47.88c-.28.32-.15.79-.52.59-5.22-2.78-22.88-11.61-32.44-8.88-11.31,3.23-31.73,4.86-41.62,1.87-14.3-4.33-13.67-29.8-1.68-39,0,0,3,8.11,32.35,9.43,68.06,3.07,54.53,24.3,54.53,24.3S150.33,41.79,144.93,47.88Z" style="fill:none;stroke:#231f20;stroke-miterlimit:10;stroke-width:3px"/><path d="M145,47.66l9.57-10.49c9.23,0,8.3,17,8.3,17l-5.62,35.54L145.86,53.2Z" style="fill:none;stroke:#231f20;stroke-miterlimit:10;stroke-width:3px"/><path d="M70.35,41.46s-3.65,4.59,0,11.86,0,30.7,0,30.7L66.7,89.67,61.89,57.36s-2.69-11.31,8.46-15.9" style="fill:none;stroke:#231f20;stroke-miterlimit:10;stroke-width:3px"/><line x1="115.86" y1="75.61" x2="132.83" y2="77.99" style="fill:none;stroke:#231f20;stroke-miterlimit:10;stroke-width:3px"/><line x1="116.05" y1="121.71" x2="117.32" y2="121.71" style="fill:none;stroke:#231f20;stroke-linecap:round;stroke-miterlimit:10;stroke-width:3px"/><line x1="109.8" y1="121.71" x2="108.53" y2="121.71" style="fill:none;stroke:#231f20;stroke-linecap:round;stroke-miterlimit:10;stroke-width:3px"/><path d="M54.4,224s6.66-15.18,29.51-22.94" style="fill:none;stroke:#231f20;stroke-miterlimit:10;stroke-width:3px"/><path d="M66,214.54a44.79,44.79,0,0,0-6.47,6.37.22.22,0,0,0,.24.35s1.26.37,5.28-2,4.39-3.35,4.39-3.35" style="fill:none;stroke:#231f20;stroke-miterlimit:10"/><path d="M39.16,175.38a11.06,11.06,0,0,0-14-17.09" style="fill:none;stroke:#231f20;stroke-miterlimit:10;stroke-width:3px"/><path d="M39,175.55a3.84,3.84,0,0,0-4.87-5.93l-.16.11A22.43,22.43,0,0,0,58.38,207" style="fill:none;stroke:#231f20;stroke-miterlimit:10;stroke-width:3px"/><path d="M25.1,158.29A3.68,3.68,0,1,1,29.77,164l-.17.14a11.06,11.06,0,0,1-12.83-18" style="fill:none;stroke:#231f20;stroke-miterlimit:10;stroke-width:3px"/><path d="M7.65,134.51a3.68,3.68,0,1,1-4.94-5.46l.17-.15a11.06,11.06,0,0,1,13.67,17.38" style="fill:none;stroke:#231f20;stroke-miterlimit:10;stroke-width:3px"/><path d="M121,128.54" style="fill:none;stroke:#231f20;stroke-linecap:round;stroke-linejoin:round;stroke-width:3px"/><path d="M112,147.6" style="fill:none;stroke:#231f20;stroke-linecap:round;stroke-linejoin:round;stroke-width:3px"/><line x1="120.96" y1="81.25" x2="125.94" y2="82.21" style="fill:none;stroke:#231f20;stroke-miterlimit:10;stroke-width:3px"/><line x1="107.62" y1="75.61" x2="90.65" y2="77.99" style="fill:none;stroke:#231f20;stroke-miterlimit:10;stroke-width:3px"/><line x1="102.52" y1="81.25" x2="97.54" y2="82.21" style="fill:none;stroke:#231f20;stroke-miterlimit:10;stroke-width:3px"/><rect x="37.7" y="262.99" width="10.32" height="9.89" style="fill:#29ade4"/><rect x="37.7" y="272.88" width="10.32" height="32.97"/><polygon points="105.75 145.27 114.73 141.61 119.05 148.96 112.4 151.1 106.58 149.2 105.75 145.27" style="fill:#61c4e2"/><path d="M171.65,127.54" style="fill:none;stroke:#231f20;stroke-miterlimit:10;stroke-width:3px"/><path d="M53.63,127.54S71.45,152.21,114,136.4c0,0,41.14,14.32,57.68-8.86-17.72,14.85-44.43-1.87-44.43-1.87L113,133.29l-8.4-5.69-6.43-1.93S79.52,141.36,53.63,127.54Z" style="fill:#61c4e2"/><polyline points="64.22 131.88 66.7 117.16 66.7 90.2 77.35 121.05 103.98 127.84 112.97 133.29 122.36 127.84 146.58 121.05 157.23 90.2 157.23 117.16 161.3 133.88" style="fill:none;stroke:#231f20;stroke-miterlimit:10;stroke-width:3px"/><path d="M103.9,147.1l6.37,3.47a5.51,5.51,0,0,0,5.5-.12l6-3.6" style="fill:none;stroke:#231f20;stroke-miterlimit:10;stroke-width:3px"/><path d="M53.63,127.54c1.27,3.75,20.81,39.85,60.34,15.24,1.65,3.38,37.68,20.62,56.53-13.13-16.38,17.2-45.88,3.23-49.23.71l-8.06,4.6-3.41-1.74-4-2.62S73.61,151.22,53.63,127.54Z" style="fill:#29ade4"/><path d="M96.33,126.73c-6.56,6-29.71,12.76-43.13-.06,0,0,20.27,42.91,60.37,15.14" style="fill:none;stroke:#231f20;stroke-linecap:round;stroke-linejoin:round;stroke-width:3px"/><path d="M129.62,126c6.55,6,30,13.43,43.39.61,0,0-19.34,43-59.44,15.2" style="fill:none;stroke:#231f20;stroke-linecap:round;stroke-linejoin:round;stroke-width:3px"/></symbol></defs><title>Asset 4</title><use width="223.06" height="374.51" xlink:href="#a"/></svg>