<svg xmlns="http://www.w3.org/2000/svg" viewBox="930 1520 56.187 41.471"> <defs> <style> .cls-1 { fill: #6d6e71; } </style> </defs> <path id="Path_478" data-name="Path 478" class="cls-1" d="M26.607,0c9.81,0,16.5,3.567,20.215,8.473a15.894,15.894,0,0,1,1.932,15.9l-.446.892h2.23a1.279,1.279,0,0,1,1.189,1.189h0v5.8H55a1.189,1.189,0,0,1,0,2.378h-6.54v5.648a1.189,1.189,0,0,1-2.378,0V34.634H36.863c-.595.149-1.338.446-1.932.595a8.355,8.355,0,0,1-2.676,4.013,8.649,8.649,0,0,1-5.8,2.081,8.264,8.264,0,0,1-5.648-2.081,8.8,8.8,0,0,1-2.676-4.162A30.7,30.7,0,0,1,5.648,28.985C2.23,26.013,0,22.3,0,18.134,0,13.081,3.27,8.621,8.175,5.351A34.8,34.8,0,0,1,26.607,0ZM46.823,27.648h0a18.921,18.921,0,0,1-5.054,4.608H49.2V27.648ZM22.594,9.959H30.62a2.6,2.6,0,0,1,2.527,2.527V18.58a2.477,2.477,0,0,1-2.527,2.378H22.594a2.477,2.477,0,0,1-2.527-2.378V12.486a2.6,2.6,0,0,1,2.527-2.527Zm8.027,2.378H22.594V18.58H30.62V12.337ZM26.607,30.62h0a1.932,1.932,0,1,1-1.932,1.932,1.792,1.792,0,0,1,1.932-1.932ZM43.7,10.851h0C40.728,6.838,35.08,3.865,26.607,3.865a30.539,30.539,0,0,0-16.2,4.757c-3.865,2.527-6.392,5.946-6.392,9.513,0,2.824,1.635,5.648,4.311,7.878a26.877,26.877,0,0,0,11.891,5.648A1.747,1.747,0,0,1,21.7,33.3a4.592,4.592,0,0,0,1.635,2.973,4.8,4.8,0,0,0,3.122,1.189,4.514,4.514,0,0,0,3.122-1.189h0A4.592,4.592,0,0,0,31.215,33.3,2.1,2.1,0,0,1,32.7,31.661c6.392-1.338,10.554-4.757,12.189-8.77a10.779,10.779,0,0,0,.892-6.094A9.971,9.971,0,0,0,43.7,10.851Z" transform="translate(930 1520)"/> </svg>