<svg xmlns="http://www.w3.org/2000/svg" viewBox="430.188 1518.48 53.813 38.937"> <defs> <style> .cls-1 { fill: #6d6e71; } </style> </defs> <path id="Path_450" data-name="Path 450" class="cls-1" d="M2.1,0H48.321a2.043,2.043,0,0,1,2,1.8l3.494,18.071v.4h0V31.549a2.109,2.109,0,0,1-2.1,2.1h-2.8a7.825,7.825,0,0,1-2.4,3.295h0a8.184,8.184,0,0,1-5.391,2,8.449,8.449,0,0,1-7.787-5.291H18.969a7.825,7.825,0,0,1-2.4,3.295h0a8.277,8.277,0,0,1-10.782,0,7.825,7.825,0,0,1-2.4-3.295H2.1a2.109,2.109,0,0,1-2.1-2.1V2.1A2.047,2.047,0,0,1,2.1,0ZM23.063,4.193h0v12.18h12.18V4.193Zm-2.5,12.18h0V4.193H10.084v12.18ZM37.739,4.193h0v12.18H48.92l-2.4-12.18ZM49.32,18.869H8.886a1.153,1.153,0,0,1-1.2-1.2h0V4.193H4.093V29.452h.9a2.031,2.031,0,0,1,2,1.7,4.44,4.44,0,0,0,1.4,2.5,4.119,4.119,0,0,0,5.491,0h0a4.172,4.172,0,0,0,1.4-2.4,2.043,2.043,0,0,1,2-1.8H34.744a2.031,2.031,0,0,1,2,1.7,4.44,4.44,0,0,0,1.4,2.5,4.012,4.012,0,0,0,2.8,1,3.769,3.769,0,0,0,2.7-1h0a4.309,4.309,0,0,0,1.5-2.4,2.043,2.043,0,0,1,2-1.8h2.3V20.467Zm-8.087,9.385h0a2.2,2.2,0,0,0-2.2,2.1,2.27,2.27,0,0,0,2.1,2.2,2.2,2.2,0,0,0,2.2-2.1h0A2.132,2.132,0,0,0,41.233,28.254Zm-29.951,0h0a2.147,2.147,0,1,0-.1,4.293,2.27,2.27,0,0,0,2.2-2.1h0A2.132,2.132,0,0,0,11.282,28.254Z" transform="translate(430.188 1518.48)"/> </svg>