<svg xmlns="http://www.w3.org/2000/svg" viewBox="1192.262 1717.859 39.157 39.198"> <defs> <style> .cls-1 { fill: #6d6e71; } </style> </defs> <path id="Path_481" data-name="Path 481" class="cls-1" d="M29.625.133a9.263,9.263,0,0,0-6.035,2.175L21.548.266a.911.911,0,0,0-1.287,0L9.255,11.272a.91.91,0,0,0,1.287,1.287l10.34-10.34L22.258,3.55,3.8,21.967a9.263,9.263,0,0,0-2.663,5.325,10.031,10.031,0,0,0,.533,4.837l-.533.533h0a3.57,3.57,0,0,0-.843,4.127A3.809,3.809,0,0,0,6.5,38.076h0l.577-.533a10.031,10.031,0,0,0,4.837.533,9.684,9.684,0,0,0,5.325-2.663L36.326,16.331a9.334,9.334,0,0,0,2.8-6.7,9.565,9.565,0,0,0-9.5-9.5ZM11.474,35.058h0a6.531,6.531,0,0,1-3.994-.71,1.554,1.554,0,0,0-1.864.311L4.374,35.946h0c-.666.666-1.775-.4-1.065-1.065L4.6,33.594a1.547,1.547,0,0,0,.222-1.908,6.612,6.612,0,0,1-.666-3.905A6.894,6.894,0,0,1,5.35,24.9L14.359,33.9a6.821,6.821,0,0,1-2.885,1.154Zm4.26-2.441h0l-9.1-9.142L18.4,11.716l9.1,9.142-11.76,11.76ZM28.782,19.526h0l-9.1-9.1L21.9,8.21l9.1,9.1-2.219,2.219Zm5.37-5.37h0L32.287,16.02l-9.1-9.1L25.009,5.1l.044-.089A6.528,6.528,0,0,1,29.58,3.2a6.4,6.4,0,0,1,6.39,6.435,6.157,6.157,0,0,1-1.819,4.527Z" transform="translate(1192.298 1717.859)"/> </svg>