<svg xmlns="http://www.w3.org/2000/svg" width="20.462" height="20.461" viewBox="0 0 20.462 20.461">
  <defs>
    <style>
      .cls-1 {
        fill: #1a1818;
      }
    </style>
  </defs>
  <path id="Path_527" data-name="Path 527" class="cls-1" d="M68.964,289.078l3.014,3.881.042.057a1.918,1.918,0,0,1,.3.625,1.947,1.947,0,0,1,.046.766,2.036,2.036,0,0,1-.255.726l-.032.046a1.867,1.867,0,0,1-.488.515l-.048.032L70.078,296.8a1.258,1.258,0,0,0,.2,1.258,19.086,19.086,0,0,0,2.158,2.578l0,0v0a19.334,19.334,0,0,0,2.578,2.162,1.261,1.261,0,0,0,1.254.2l1.1-1.516h0a1.843,1.843,0,0,1,.562-.519v0a1.944,1.944,0,0,1,.723-.254l.03,0a1.984,1.984,0,0,1,.738.046l.044.013a1.921,1.921,0,0,1,.637.332l0,0,3.883,3.014.061.057a1.843,1.843,0,0,1,.469.583v0a1.891,1.891,0,0,1,.21.8,1.945,1.945,0,0,1-.137.812h0a1.922,1.922,0,0,1-.477.679,5.4,5.4,0,0,1-.928.7l-.044.021a6.444,6.444,0,0,1-1.268.574,10.4,10.4,0,0,1-6.6-.145,17.265,17.265,0,0,1-10.388-10.388,10.4,10.4,0,0,1-.149-6.606,6.788,6.788,0,0,1,.595-1.31h0l0,0a6.023,6.023,0,0,1,.7-.93,1.958,1.958,0,0,1,.683-.473l.065-.025a2,2,0,0,1,1.544.1l.044.025.593.507Zm1.775,4.848h0l-3.014-3.885h0a.391.391,0,0,0-.093-.088l-.023-.011a.321.321,0,0,0-.147-.034.344.344,0,0,0-.128.011l-.027.011a.352.352,0,0,0-.118.088,3.97,3.97,0,0,0-.5.669h0a4.81,4.81,0,0,0-.454,1,8.818,8.818,0,0,0,.149,5.616,15.763,15.763,0,0,0,9.391,9.393,8.86,8.86,0,0,0,5.618.145,5.008,5.008,0,0,0,.961-.433l.032-.021a4.091,4.091,0,0,0,.671-.5.344.344,0,0,0,.086-.12h0v0a.358.358,0,0,0,.023-.151.313.313,0,0,0-.038-.149h0a.239.239,0,0,0-.072-.09l-.029-.023-3.883-3.014h0l0,0a.408.408,0,0,0-.1-.059l-.019,0a.415.415,0,0,0-.132-.008l-.006,0a.392.392,0,0,0-.135.042h0a.336.336,0,0,0-.1.1l0,0,0,0-1.184,1.63a.863.863,0,0,1-.255.242,2.7,2.7,0,0,1-3.085-.194,20.626,20.626,0,0,1-2.789-2.333h0a20.462,20.462,0,0,1-2.339-2.795,2.71,2.71,0,0,1-.194-3.083h0a.877.877,0,0,1,.214-.231l1.609-1.171.051-.042a.44.44,0,0,0,.086-.08l.011-.019a.39.39,0,0,0,.044-.135.421.421,0,0,0-.008-.141.489.489,0,0,0-.04-.093l-.025-.029Zm-1.779-4.848Zm0,0Z" transform="translate(-64.273 -288.337)"/>
</svg>
