<svg xmlns="http://www.w3.org/2000/svg" viewBox="0 0 73.84 104.94"><defs><style>.a{fill:#6d6e71;}</style></defs><title>Asset 4</title><path class="a" d="M71.77,37.89a3.93,3.93,0,0,1,2.07,3.45c0,.31-.06.59-.06.87L65.1,101.55a4,4,0,0,1-3.9,3.39H12.59a3.94,3.94,0,0,1-3.92-3.62L0,41.89a3.92,3.92,0,0,1,2-4A13.61,13.61,0,0,1,.68,31.94a13.34,13.34,0,0,1,9.89-12.83A13.41,13.41,0,0,1,23.74,7.68c.34,0,.64,0,1,0a13.36,13.36,0,0,1,24.21,0c.36,0,.79-.06,1.18-.06A13.38,13.38,0,0,1,63.25,19.11a13.37,13.37,0,0,1,9.92,12.83,14,14,0,0,1-1.4,5.94Zm-18.94,7.4h0V56.21c3.31,2.63,5.38,6.22,5.38,10s-2.07,7.4-5.38,10.09V97h5l7.54-51.75ZM48.06,97h0v-18a27.83,27.83,0,0,1-8.8,2.19V97ZM34.53,97h0V81.26a28,28,0,0,1-8.77-2.19V97ZM21,97h0V76.33c-3.36-2.69-5.38-6.16-5.38-10.09s2-7.4,5.38-10V45.28H8.5L16,97ZM39.27,45.28h0v6.05a29.36,29.36,0,0,1,8.8,2.1V45.28Zm-13.51,0h0v8.15a29.6,29.6,0,0,1,8.77-2.1V45.28Zm-5.38,21h0c0,13.73,33.06,13.79,33.06,0s-33.06-13.67-33.06,0Zm3.28-50.66h0a5.36,5.36,0,0,0-5.07,3.87,13.64,13.64,0,0,1,4.82,3.08,13.33,13.33,0,0,1,3.92,9.41,4,4,0,0,1-4,4,3.91,3.91,0,0,1-3.92-4A5.46,5.46,0,0,0,14,26.56h-.05A5.41,5.41,0,1,0,14,37.38H59.8A5.42,5.42,0,0,0,61.93,27a11.7,11.7,0,0,1-2.27,3.22l-.17.2a13.4,13.4,0,0,1-9.42,3.92,4,4,0,1,1,0-7.9,5.58,5.58,0,0,0,3.84-1.6l.09-.06a5.29,5.29,0,0,0,1.4-2.91l.05-.39v-.53a5.41,5.41,0,0,0-5.38-5.35h-.2A12,12,0,0,1,49,18.47a3.94,3.94,0,0,1-7.26-3.05,5.64,5.64,0,0,0,.45-2.19v-.17l-.05-.2a5.38,5.38,0,0,0-5.38-5,5.51,5.51,0,0,0-5.44,4.88v.5A5.21,5.21,0,0,0,32.82,17l.11.14a5.37,5.37,0,0,0,3.87,1.6,4,4,0,0,1,0,7.9,13.53,13.53,0,0,1-9.47-3.92l-.11-.17a13.71,13.71,0,0,1-3.56-6.95Z"/></svg>