<svg xmlns="http://www.w3.org/2000/svg" viewBox="0 0 74.37 104.38"><defs><style>.a{fill:#6d6e71;}.b{fill:none;stroke:#6d6e71;stroke-linecap:round;stroke-miterlimit:10;stroke-width:5px;}</style></defs><title>Asset 1</title><path class="a" d="M23.69,89.58a2.42,2.42,0,0,1,0-4.84h27a2.42,2.42,0,1,1,0,4.84ZM4,0H70.33a4,4,0,0,1,4,4V100.4a4.07,4.07,0,0,1-4,4H4a4,4,0,0,1-4-4V4A4,4,0,0,1,4,0ZM66.31,8H8V96.35H66.31V8Z"/><line class="b" x1="23.06" y1="24.25" x2="51.56" y2="24.25"/><line class="b" x1="23.06" y1="32.74" x2="51.56" y2="32.74"/><line class="b" x1="23.06" y1="41.22" x2="51.56" y2="41.22"/><line class="b" x1="23.06" y1="49.7" x2="37.19" y2="49.7"/><line class="b" x1="44.5" y1="49.7" x2="51.56" y2="49.7"/></svg>